<?xml version="1.0" encoding="UTF-8"?><!DOCTYPE svg PUBLIC "-//W3C//DTD SVG 1.1//EN" "http://www.w3.org/Graphics/SVG/1.1/DTD/svg11.dtd"><svg xmlns="http://www.w3.org/2000/svg" xmlns:xlink="http://www.w3.org/1999/xlink"><defs>
        <path id="codeId" d="M105.373 15H14.522C11.998 15 10 17.003 10 19.534v65.06c0 2.426 1.998 4.535 4.522 4.535h36.593v8.224h-8.097c-1.262 0-2.208 1.055-2.208 2.215v4.218c0 1.265 1.051 2.214 2.208 2.214h33.964c1.262 0 2.208-1.054 2.208-2.214v-4.218c0-1.266-1.051-2.215-2.208-2.215h-8.097V89.13h36.593c2.524 0 4.522-2.004 4.522-4.535v-65.06c-.105-2.53-2.103-4.534-4.627-4.534zM59.947 84.173c-1.682 0-3.154-1.371-3.154-3.164 0-1.687 1.367-3.163 3.154-3.163 1.683 0 3.155 1.37 3.155 3.163 0 1.793-1.472 3.164-3.155 3.164zm41.851-10.861H18.097V23.119h83.701v50.193zm-59.621-10.65c.525.527 1.472.527 1.998 0l3.575-3.586c.525-.527.525-1.476 0-2.003l-8.833-8.857 8.833-8.858c.525-.527.525-1.476 0-2.003l-3.575-3.586c-.526-.527-1.473-.527-1.998 0l-13.46 13.392c-.526.527-.526 1.476 0 2.004l13.46 13.497zm30.073-3.586l3.575 3.586c.526.527 1.473.527 1.998 0l13.46-13.497c.526-.528.526-1.477 0-2.004L77.718 33.77c-.526-.527-1.472-.527-1.998 0l-3.575 3.586c-.526.527-.526 1.476 0 2.003l8.833 8.858-8.833 8.857c-.42.527-.42 1.476.105 2.003zM52.692 64.56h4.311c.631 0 1.157-.422 1.262-.95L68.57 33.665c.315-.95-.316-1.898-1.262-1.898h-4.311c-.631 0-1.157.422-1.262.949L51.43 62.662c-.42.949.316 1.898 1.262 1.898z"/>
        <filter id="codeFilter" width="130%" height="133%" x="-15%" y="-16.5%" filterUnits="objectBoundingBox">
            <feOffset in="SourceAlpha" result="shadowOffsetOuter1"/>
            <feGaussianBlur in="shadowOffsetOuter1" result="shadowBlurOuter1" stdDeviation="5"/>
            <feColorMatrix in="shadowBlurOuter1" values="0 0 0 0 0 0 0 0 0 0 0 0 0 0 0 0 0 0 0.251896513 0"/>
        </filter>
    
        <path id="a" d="M0 0h100v100H0z"/>
        <mask id="b" width="100" height="100" x="0" y="0" fill="#fff">
            <use xlink:href="#a"/>
        </mask>
    </defs><symbol id="approved" viewBox="0 0 15 12">
    <path fill="#FFF" fill-rule="evenodd" d="M12.562 0L5.764 6.987 2.438 3.57 0 6.075 5.762 12 15 2.505z"/>
</symbol><symbol id="chat" viewBox="0 0 90 90"><path fill="#FFF" fill-opacity=".746" d="M35.151 74a1.74 1.74 0 0 1-.752-.17 1.772 1.772 0 0 1-1.003-1.6v-9.114h-17.25c-3.389 0-6.146-2.781-6.146-6.199V22.198C10 18.781 12.757 16 16.146 16h57.708C77.243 16 80 18.78 80 22.198v34.72c0 3.417-2.757 6.198-6.146 6.198H48.989L36.262 73.6c-.32.263-.713.399-1.11.399zM16.146 19.54c-1.453 0-2.635 1.193-2.635 2.658v34.72c0 1.465 1.182 2.657 2.635 2.657h19.005c.97 0 1.756.793 1.756 1.77v7.152l10.345-8.523a1.749 1.749 0 0 1 1.11-.399h25.492c1.453 0 2.635-1.192 2.635-2.658V22.198c0-1.465-1.182-2.657-2.635-2.657H16.146zM46.702 45.3H33.749c-.97 0-1.755-.792-1.755-1.77 0-.977.786-1.77 1.755-1.77h12.953c.969 0 1.755.793 1.755 1.77 0 .978-.786 1.77-1.755 1.77zm9.549-7.93H33.749c-.97 0-1.755-.793-1.755-1.77 0-.978.786-1.77 1.755-1.77h22.502c.97 0 1.755.792 1.755 1.77 0 .977-.786 1.77-1.755 1.77z"/></symbol><symbol id="check" viewBox="0 0 25 20">
    <path fill-rule="evenodd" d="M20.937 0L9.607 11.646 4.062 5.949 0 10.126 9.604 20 25 4.176z"/>
</symbol><symbol id="close-red" viewBox="0 0 16 16">
    <g fill="none" fill-rule="evenodd">
        <path d="M0 0h16v16H0z"/>
        <path stroke="#f35144" stroke-width="1.3" d="M8 8L3 3.037 8 8l-4.962 5L8 8zm0 0l5 4.962L8 8l4.962-5L8 8z"/>
    </g>
</symbol><symbol id="code" viewBox="0 0 120 120">
    
    <g fill="none" fill-rule="evenodd">
        <use fill="#000" filter="url(#codeFilter)" xlink:href="#codeId"/>
        <use fill="#FFF" xlink:href="#codeId"/>
    </g>
</symbol><symbol id="facebook" viewBox="0 0 14 25">
    <path fill-rule="evenodd" d="M9.3 25V13.597h3.832l.575-4.445H9.3V6.314c0-1.286.356-2.163 2.206-2.163l2.355-.001V.174C13.455.121 12.057 0 10.429 0 7.031 0 4.705 2.071 4.705 5.874v3.278H.862v4.445h3.843V25H9.3z"/>
</symbol><symbol id="feature-auction" viewBox="0 0 70 70">
    <g fill="#63EACB" fill-rule="nonzero">
        <path d="M33.263 42.48c.018.018.107.127.113.127-.024 0-.12-.187-.066-.072.024.048.054.102.084.144.078.12-.054-.108-.036-.096.048.018.06.222.078.276.042.12-.018-.108-.012-.12-.018.042.006.15.006.204-.006.294.06-.156 0 .042-.018.054-.03.108-.042.156-.012.048-.078.132 0 .012.12-.186-.107.132-.096.15-.011-.018.198-.216.03-.042a.656.656 0 0 0-.06.066c-.185.193-.376.379-.567.57l-2.192 2.205-.269.27c-.03.03-.06.06-.09.084-.155.15.156-.084-.03.018a.81.81 0 0 1-.143.079c.012.006.245-.079.06-.03-.048.012-.107.024-.155.042-.126.042-.09-.054.077-.006-.06-.018-.173.006-.239.006-.238 0 .084-.006.078.018 0 .006-.173-.042-.155-.036-.042-.012-.078-.03-.114-.036-.131-.037.233.138.024.006a1.038 1.038 0 0 0-.107-.067c-.114-.054.071.042.071.067 0-.006-.113-.103-.125-.115l-.018-.018c-.263-.258-.52-.522-.782-.786l-3.925-3.946-4.7-4.727c-.879-.883-1.757-1.754-2.63-2.643a.718.718 0 0 1-.065-.072.686.686 0 0 0-.083-.096c.03-.006.143.234.041.036-.018-.036-.035-.078-.06-.108-.089-.132.06.21.025.06-.018-.06-.036-.228-.072-.276.006.012.012.246.018.12v-.204c-.006-.204-.06.246.012-.042l.036-.12c.041-.163.047.024-.03.06.024-.012.173-.337.083-.163-.071.133.036-.036.078-.078l.173-.174 2.133-2.144.716-.72c.03-.03.06-.06.09-.085.131-.126 0 .054-.042.03.006.006.096-.06.108-.066.018-.012.101-.042.107-.06-.149.06-.179.072-.095.042.024-.012.053-.018.077-.024.054-.018.108-.024.156-.042.131-.042-.12.03-.12.012 0-.012.245 0 .281 0 .125-.006-.108-.012-.12-.018.024.018.12.024.156.036.036.012.131.054.155.048-.06.012-.203-.108-.06-.018l.144.09c-.012.006-.168-.156-.072-.06.03.03.072.066.096.09l.018.018.09.09c.13.133.262.265.393.397l3.65 3.67 4.76 4.786 3.03 3.045c.023.036.077.084.125.138.442.445 1.254.481 1.69 0 .436-.48.472-1.225 0-1.7l-2.336-2.348-4.844-4.87-4.115-4.139c-.263-.264-.526-.534-.789-.792-.621-.607-1.487-.961-2.353-.871-.789.084-1.44.432-1.995.99l-2.18 2.193c-.24.24-.484.48-.723.727a3.096 3.096 0 0 0-.819 2.78c.15.781.657 1.328 1.189 1.862l1.457 1.466 4.707 4.733 4.39 4.414 1.058 1.063c1.17 1.177 2.945 1.28 4.211.18.64-.558 1.213-1.213 1.81-1.814.735-.738 1.655-1.465 2.037-2.468.412-1.075.072-2.3-.699-3.111-.43-.457-1.26-.469-1.69 0-.454.492-.466 1.219-.006 1.705zM50.878 24.769c.018.018.107.126.113.126-.024 0-.12-.186-.066-.072.024.048.054.102.084.144.078.12-.054-.108-.036-.096.048.018.06.222.078.276.042.12-.018-.108-.012-.12-.018.042.006.15.006.204-.006.295.06-.156 0 .042-.018.054-.03.108-.042.156-.012.048-.078.133 0 .012.12-.186-.107.133-.095.15-.012-.017.197-.216.03-.041-.018.018-.042.042-.06.066-.185.192-.377.378-.568.57l-2.192 2.204-.269.27c-.03.03-.06.06-.09.085-.155.15.156-.084-.03.018a.81.81 0 0 1-.143.078c.012.006.245-.078.06-.03-.048.012-.107.024-.155.042-.126.042-.09-.054.078-.006-.06-.018-.174.006-.24.006-.238 0 .084-.006.078.018 0 .006-.173-.042-.155-.036-.042-.012-.078-.03-.114-.036-.131-.036.233.138.024.006a1.038 1.038 0 0 0-.107-.066c-.114-.054.072.042.072.066 0-.006-.114-.102-.126-.114l-.018-.018c-.263-.259-.52-.523-.782-.787a73001069.131 73001069.131 0 0 1-8.626-8.673c-.878-.883-1.756-1.754-2.628-2.642-.024-.024-.048-.048-.066-.073a.686.686 0 0 0-.083-.096c.03-.006.143.235.042.036-.018-.036-.036-.078-.06-.108-.09-.132.06.21.024.06-.018-.06-.036-.228-.072-.276.006.012.012.246.018.12v-.204c-.006-.204-.06.246.012-.042l.036-.12c.042-.162.048.024-.03.06.024-.012.173-.336.083-.162-.071.132.036-.036.078-.078l.173-.174 2.133-2.145.717-.72c.03-.03.06-.06.09-.084.13-.127 0 .054-.043.03.006.006.096-.06.108-.066.018-.012.101-.043.107-.06-.149.06-.179.072-.095.042.024-.013.054-.019.077-.025.054-.018.108-.024.156-.042.131-.042-.12.03-.12.012 0-.012.245 0 .281 0 .126-.006-.107-.012-.12-.018.025.018.12.024.156.036.036.012.131.055.155.049-.06.012-.203-.109-.06-.018l.144.09c-.012.006-.167-.157-.072-.06.03.03.072.066.096.09l.018.018.09.09.393.396 3.65 3.67 4.76 4.787 3.03 3.045c.023.036.071.084.125.138.442.444 1.254.48 1.69 0 .436-.48.472-1.225 0-1.7l-2.335-2.348-4.845-4.871-4.115-4.138c-.263-.265-.526-.535-.789-.793-.621-.607-1.487-.961-2.353-.871-.789.084-1.44.432-1.995.991l-2.18 2.192c-.24.24-.484.48-.723.727a3.096 3.096 0 0 0-.819 2.78c.15.782.657 1.328 1.19 1.863l1.457 1.465 4.706 4.733 4.39 4.414 1.058 1.063c1.17 1.177 2.945 1.28 4.211.18.64-.558 1.213-1.213 1.81-1.813.735-.74 1.655-1.466 2.037-2.469.412-1.075.072-2.3-.699-3.11-.43-.457-1.26-.47-1.69 0-.454.498-.466 1.218-.006 1.705z"/>
        <path d="M43.985 27.351l-4.546 4.57-4.564 4.59-2.927 2.942h1.69l-3.195-3.213-5.095-5.123-1.177-1.183v1.7l4.068-4.09 6.481-6.517 1.487-1.495h-1.69l3.196 3.213 5.095 5.123 1.177 1.183c.442.444 1.254.48 1.69 0 .436-.48.472-1.225 0-1.7l-3.196-3.213-5.095-5.123-1.177-1.183a1.209 1.209 0 0 0-1.69 0l-4.068 4.09-6.48 6.516-1.488 1.496a1.225 1.225 0 0 0 0 1.7l3.196 3.213 5.095 5.123 1.176 1.183c.454.457 1.231.463 1.69 0l4.373-4.396 4.845-4.871c.943-.95 1.881-1.892 2.825-2.841.442-.444.478-1.261 0-1.7-.484-.432-1.225-.468-1.696.006z"/>
        <path d="M59.27 55.297a3.682 3.682 0 0 0-.161.15c-.12.115.179-.108.036-.03-.06.036-.287.127-.329.187.06-.09.197-.072.054-.03-.054.018-.102.036-.155.048-.066.018-.132.03-.203.048-.09.018-.054.012.113-.012-.042.006-.084.006-.125.006-.036 0-.359.018-.37-.006-.007-.012.31.066.07.006l-.16-.036c-.054-.012-.108-.036-.156-.048-.257-.072.162.096.018.012-.048-.03-.101-.048-.15-.078-.029-.019-.28-.163-.125-.073.138.085-.095-.09-.143-.138l-.024-.024-.101-.102-1.075-1.08-4.54-4.565c-1.99-2.018-3.99-4.037-5.997-6.049l-5.364-5.393c-.884-.889-1.739-1.814-2.658-2.673l-.036-.036v1.7l3.464-3.483h-1.69a45186095.476 45186095.476 0 0 0 7.335 7.375l6.045 6.078 4.82 4.847 1.314 1.321.27.27.017.019.006.006c.018.024-.036-.043.06.066.03.03.06.066.083.096a1.01 1.01 0 0 0-.053-.072c-.006.012.155.264.173.288.137.228-.054-.18-.006-.018.018.066.042.132.066.198l.036.162c.03.126-.042.096-.006-.072-.024.12.011.288.006.409-.006.246.005-.079.011-.073.012.013-.035.18-.041.205-.012.054-.03.108-.048.162-.054.174.036.114.012-.018.012.078-.126.228-.161.294-.102.186.023-.006.035-.036-.024.066-.113.138-.167.192-.436.45-.484 1.256 0 1.7.472.432 1.225.48 1.69 0 1.422-1.477 1.374-3.79-.06-5.237l-.949-.955-4.444-4.469-6.093-6.126-5.477-5.507c-.914-.92-1.81-1.862-2.748-2.763l-.036-.036a1.209 1.209 0 0 0-1.69 0l-3.465 3.483a1.225 1.225 0 0 0 0 1.7l2.258 2.27 5.263 5.292 6.14 6.174c1.59 1.597 3.172 3.189 4.76 4.787l1.207 1.213c.06.06.12.126.186.186.92.9 2.216 1.261 3.464.961.64-.15 1.219-.505 1.69-.961.449-.438.472-1.267 0-1.7-.49-.456-1.212-.48-1.696-.012zM37.964 59.093H10.726c-.108 0-.407-.048-.072.024-.096-.018-.132-.084.077.036.21.12.138.12.072.048.036.042.066.084.102.126.065.175.077.205.036.078l.023.163c.018-.036 0-.127 0-.169v-.858-1.964c0-.024.012-.109 0-.127.018.024-.071.295-.006.09a.615.615 0 0 1-.16.277c.143-.156-.108.048-.15.078-.102.036-.102.042 0 .012-.167.018-.221.024-.161.024.012.006.053 0 .065 0 .162.012.323 0 .484 0h25.506c.448 0 .914.036 1.362 0 .077-.006.161.03-.108-.024.21.042-.09-.066-.137-.09a.419.419 0 0 0-.06-.048c.09.09.072.066-.048-.072-.018-.03-.083-.27-.035-.078-.006-.054-.018-.108-.024-.169-.018.024 0 .139 0 .169v2.81c0 .024-.018.12 0 .139-.006-.012.047-.253.018-.127-.03.103.125-.216.149-.24-.132.144.042-.03.072-.048.047-.018.101-.042.149-.06-.137.042-.108.036.084 0-.622.036-1.225.529-1.195 1.201.03.625.526 1.238 1.195 1.201 1.021-.054 1.845-.792 1.905-1.843.012-.18.006-.36.006-.547v-2.144c0-.168.006-.342 0-.51-.036-1.028-.8-1.862-1.834-1.916-.107-.006-.215-.006-.322-.006H14.99c-1.475 0-2.956-.018-4.438 0-1.063.012-1.923.798-1.97 1.88-.025.534 0 1.068 0 1.603 0 .535-.025 1.07 0 1.604.047 1.08.907 1.867 1.97 1.88 1.476.018 2.957 0 4.438 0h22.974c.627 0 1.224-.553 1.194-1.202-.03-.648-.525-1.2-1.194-1.2z"/>
    </g>
</symbol><symbol id="feature-celebs" viewBox="0 0 70 70">
    <path fill="#63EACB" fill-rule="nonzero" d="M18.72 61.994c-.398 0-.79-.119-1.128-.359a1.965 1.965 0 0 1-.79-2.039l3.952-17.867L7.586 28.732a1.971 1.971 0 0 1-.451-2.118 1.956 1.956 0 0 1 1.763-1.252l17.084-.578L32.68 8.117c.597-1.491 3.044-1.488 3.645 0L43.02 24.76l17.088.606c.782.028 1.477.52 1.76 1.252a1.986 1.986 0 0 1-.448 2.118L48.271 41.737 52.2 59.608a1.969 1.969 0 0 1-2.974 2.086l-14.727-9.38-14.727 9.373a1.96 1.96 0 0 1-1.053.307zm15.779-13.982c.365 0 .734.102 1.057.307l11.788 7.502-3.146-14.308a1.967 1.967 0 0 1 .538-1.823l10.677-10.557-13.808-.488a1.97 1.97 0 0 1-1.756-1.228L34.5 14.12l-5.35 13.325a1.97 1.97 0 0 1-1.756 1.232L13.6 29.14l10.684 10.55c.484.476.684 1.169.539 1.83l-3.163 14.3 11.785-7.498a1.955 1.955 0 0 1 1.053-.311z"/>
</symbol><symbol id="feature-community" viewBox="0 0 70 70">
    <g fill="#63EACB" fill-rule="nonzero" stroke="#63EACB" stroke-width=".556">
        <path d="M19.367 18.332c.717 0 1.299-.586 1.299-1.31v-1.9c0-1.386 1.118-2.513 2.49-2.513h.93c1.373 0 2.49 1.127 2.49 2.513v1.9c0 .723.583 1.31 1.3 1.31.717 0 1.3-.587 1.3-1.31v-1.9c0-2.831-2.284-5.135-5.09-5.135h-.93c-2.805 0-5.088 2.304-5.088 5.135v1.9c0 .723.581 1.31 1.299 1.31zM41.148 18.332c.717 0 1.3-.586 1.3-1.31v-1.9c0-1.386 1.117-2.513 2.49-2.513h.93c1.373 0 2.49 1.127 2.49 2.513v1.9c0 .723.583 1.31 1.3 1.31.717 0 1.299-.587 1.299-1.31v-1.9c0-2.831-2.283-5.135-5.09-5.135h-.929c-2.806 0-5.09 2.304-5.09 5.135v1.9c0 .723.582 1.31 1.3 1.31zM8.054 50.013v6.031c0 2.044 1.648 3.707 3.673 3.707h4.014c2.025 0 3.673-1.663 3.673-3.707v-6.031a3.709 3.709 0 0 0 2.633-3.556v-8.69c0-3.464-2.792-6.28-6.224-6.28h-4.178c-3.432 0-6.224 2.816-6.224 6.28v8.69a3.708 3.708 0 0 0 2.633 3.556zm-.035-12.246c0-2.018 1.626-3.66 3.626-3.66h4.178c2 0 3.626 1.642 3.626 3.66v8.69a1.08 1.08 0 0 1-1.075 1.085h-1.557v8.502a1.08 1.08 0 0 1-1.075 1.085h-4.014a1.081 1.081 0 0 1-1.075-1.085v-8.502H9.095a1.081 1.081 0 0 1-1.075-1.085v-8.69H8.02zM32.505 59.752h4.014c2.025 0 3.673-1.663 3.673-3.707v-6.032a3.709 3.709 0 0 0 2.633-3.555v-8.691c0-3.464-2.792-6.28-6.224-6.28h-4.178c-3.432 0-6.225 2.816-6.225 6.28v8.69a3.71 3.71 0 0 0 2.634 3.556v6.032c0 2.044 1.648 3.707 3.673 3.707zm-3.709-13.295v-8.69c0-2.018 1.628-3.66 3.627-3.66h4.178c2 0 3.626 1.642 3.626 3.66v8.69a1.08 1.08 0 0 1-1.075 1.085h-1.558v8.502a1.08 1.08 0 0 1-1.075 1.085h-4.013a1.081 1.081 0 0 1-1.075-1.085v-8.502h-1.558a1.081 1.081 0 0 1-1.077-1.085zM28.958 24.74c0 2.831 2.283 5.135 5.09 5.135h.928c2.807 0 5.09-2.304 5.09-5.136v-1.898c0-2.832-2.283-5.136-5.09-5.136h-.928c-2.807 0-5.09 2.304-5.09 5.136v1.898zm2.598-1.9c0-1.386 1.118-2.513 2.492-2.513h.928c1.374 0 2.492 1.127 2.492 2.514v1.898c0 1.387-1.118 2.514-2.492 2.514h-.928c-1.374 0-2.492-1.127-2.492-2.514v-1.898zM8.002 24.74c0 2.831 2.284 5.135 5.09 5.135h.929c2.806 0 5.09-2.304 5.09-5.136v-1.898c0-2.832-2.284-5.136-5.09-5.136h-.93c-2.805 0-5.09 2.304-5.09 5.136v1.898zm2.598-1.9c0-1.386 1.118-2.513 2.492-2.513h.929c1.373 0 2.49 1.127 2.49 2.514v1.898c0 1.387-1.117 2.514-2.49 2.514h-.93c-1.373 0-2.49-1.127-2.49-2.514v-1.898zM53.2 31.486c-3.431 0-6.223 2.817-6.223 6.28v8.691a3.708 3.708 0 0 0 2.633 3.556v6.031c0 2.044 1.648 3.707 3.673 3.707h4.013c2.026 0 3.674-1.663 3.674-3.707v-6.031a3.709 3.709 0 0 0 2.633-3.556v-8.69c0-3.464-2.792-6.28-6.224-6.28h-4.178zm7.805 6.28v8.691a1.08 1.08 0 0 1-1.075 1.085h-1.558v8.502c0 .599-.482 1.085-1.075 1.085h-4.013a1.081 1.081 0 0 1-1.075-1.085v-8.502H50.65a1.081 1.081 0 0 1-1.075-1.085v-8.69c0-2.018 1.627-3.66 3.626-3.66h4.179c1.998 0 3.624 1.642 3.624 3.66zM49.737 24.74c0 2.831 2.283 5.135 5.089 5.135h.93c2.806 0 5.089-2.304 5.089-5.136v-1.898c0-2.832-2.283-5.136-5.09-5.136h-.93c-2.805 0-5.088 2.304-5.088 5.136v1.898zm2.598-1.9c0-1.386 1.118-2.513 2.49-2.513h.93c1.374 0 2.491 1.127 2.491 2.514v1.898c0 1.387-1.117 2.514-2.49 2.514h-.93c-1.373 0-2.491-1.127-2.491-2.514v-1.898z"/>
    </g>
</symbol><symbol id="feature-scouting" viewBox="0 0 70 70">
    <path fill="#63EACB" fill-rule="nonzero" d="M30.732 19.436c-.015-3.167-2.296-5.855-5.385-6.346-3.088-.491-6.073 1.36-7.046 4.37a1.769 1.769 0 0 0-.07.29l-.195 1.371a8.665 8.665 0 0 0-2.92 4.141L9.14 39.594a12.123 12.123 0 0 0-.714 2.006v.052c-.044.123-.075.25-.092.38-1.085 4.557.52 9.34 4.123 12.282a11.847 11.847 0 0 0 12.724 1.477c4.167-2.04 6.8-6.33 6.76-11.018 0-.344 0-.688-.051-1.027.033-.135.05-.274.052-.414l-.04-8.44h7.202l-.046 8.44c.001.14.019.279.052.414 0 .339-.052.683-.052 1.027-.036 4.687 2.598 8.976 6.764 11.014a11.847 11.847 0 0 0 12.722-1.48c3.602-2.943 5.207-7.725 4.122-12.281a1.768 1.768 0 0 0-.092-.374v-.046a12.12 12.12 0 0 0-.743-2.03l-5.97-16.331a8.66 8.66 0 0 0-2.92-4.141l-.179-1.36a1.816 1.816 0 0 0-.069-.297c-.974-3.011-3.961-4.862-7.052-4.367-3.09.494-5.37 3.187-5.38 6.356v.064l.064 2.164a8.694 8.694 0 0 0-1.151 4.305v.175h-7.342v-.175a8.694 8.694 0 0 0-1.151-4.31l.063-2.164s-.012-.035-.012-.059zm-6.374-2.916c1.126.003 2.15.66 2.632 1.691a8.42 8.42 0 0 0-3.737-.88c-.32.001-.639.02-.956.058a2.895 2.895 0 0 1 2.061-.88v.011zm-4.416 36.885a8.448 8.448 0 0 1-6.723-3.313 8.684 8.684 0 0 1-1.528-7.413l.645-1.75c1.874-3.807 6.209-5.662 10.21-4.368 4.002 1.294 6.474 5.35 5.824 9.552-.65 4.204-4.228 7.3-8.428 7.292zm0-20.781a11.759 11.759 0 0 0-4.986 1.166l3.408-9.332V24.4c.788-2.414 3.186-3.895 5.665-3.498 2.48.396 4.31 2.554 4.325 5.096l.035 6.999v.163a1.772 1.772 0 0 0 0 .187v2.916a11.862 11.862 0 0 0-8.447-3.64zm31.093 20.781c-4.196.002-7.767-3.092-8.417-7.29-.65-4.2 1.817-8.252 5.812-9.55 3.994-1.299 8.328.543 10.211 4.34l.65 1.75a8.684 8.684 0 0 1-1.518 7.432 8.448 8.448 0 0 1-6.738 3.318zM56.02 33.79a11.796 11.796 0 0 0-13.473 2.462l.052-10.237c0-2.547 1.827-4.718 4.31-5.122 2.484-.405 4.89 1.076 5.68 3.495v.058l3.431 9.344zm-9.397-17.282a2.86 2.86 0 0 1 2.062.875 8.528 8.528 0 0 0-.968-.058 8.404 8.404 0 0 0-3.73.88 2.917 2.917 0 0 1 2.636-1.697zM39.14 29.643v1.75h-7.284v-1.75h7.284z"/>
</symbol><symbol id="feature-voting" viewBox="0 0 70 70">
    <path fill="#63EACB" fill-rule="nonzero" d="M56.238 44.895a1.483 1.483 0 0 0-1.404-.983h-4.988v-7.594c0-1.9-1.55-3.439-3.46-3.439h-.243v-1.965a4.866 4.866 0 0 0-1.305-3.306L30.556 12.965a4.967 4.967 0 0 0-6.293-.668l-6.836 4.524a4.38 4.38 0 0 0-1.943 4.25l1.335 10.07a6.505 6.505 0 0 0 1.596 4.101l2.24 2.589v6.081H16.6a1.483 1.483 0 0 0-1.404.983l-3.955 11.824c-.147.447-.07.938.208 1.32.278.381.722.608 1.196.61H58.79c.477 0 .925-.227 1.205-.611.279-.385.355-.88.204-1.33l-3.96-11.813zm-9.358-8.577v14.737H23.606v-9.417l3.09 5.266a4.906 4.906 0 0 0 2.471 2.083l.164.064c.569.22 1.174.333 1.784.334a4.906 4.906 0 0 0 4.157-2.324 4.841 4.841 0 0 0 .198-4.735l-3.312-6.5h14.228c.273 0 .494.22.494.492zM19.77 30.84l-1.355-10.15a1.47 1.47 0 0 1 .648-1.414l6.847-4.524a1.987 1.987 0 0 1 2.516.27l14.252 14.644c.32.353.496.812.494 1.287v1.965H30.665l-.761-1.504a1.486 1.486 0 0 0-2.565-.145 1.466 1.466 0 0 0-.085 1.472l5.552 10.91a1.906 1.906 0 0 1-.295 2.148 1.936 1.936 0 0 1-2.123.5l-.163-.064a1.935 1.935 0 0 1-.988-.82l-3.668-6.278a4.911 4.911 0 0 0-.495-.718l-4.424-5.099a3.568 3.568 0 0 1-.87-2.303c0-.06-.003-.119-.01-.177zM14.703 55.7l2.97-8.841h2.967v4.224H19.21c-.819 0-1.483.66-1.483 1.474s.664 1.474 1.483 1.474h31.955c.819 0 1.483-.66 1.483-1.474s-.664-1.474-1.483-1.474h-1.32V46.86h3.915l2.966 8.876-42.024-.034z"/>
</symbol><symbol id="help" viewBox="0 0 12 12">
    <g fill="none" fill-rule="evenodd">
        <circle cx="6" cy="6" r="6" fill="#3185FC"/>
        <text fill="#FFF" font-family="Exo2-Bold, Exo 2" font-size="9" font-weight="bold">
            <tspan x="3.75" y="9">?</tspan>
        </text>
    </g>
</symbol><symbol id="instagram" viewBox="0 0 25 25">
    <path fill-rule="evenodd" d="M18 0a6.869 6.869 0 0 1 6.862 6.861v11.14a6.869 6.869 0 0 1-6.861 6.861H6.86A6.869 6.869 0 0 1 0 18.001V6.861A6.869 6.869 0 0 1 6.86 0H18zm4.656 18.001V6.861a4.66 4.66 0 0 0-4.655-4.655H6.86A4.66 4.66 0 0 0 2.206 6.86v11.14a4.66 4.66 0 0 0 4.655 4.655H18a4.66 4.66 0 0 0 4.655-4.655zM12.431 6.025a6.414 6.414 0 0 1 6.406 6.406 6.413 6.413 0 0 1-6.406 6.406 6.413 6.413 0 0 1-6.406-6.406 6.414 6.414 0 0 1 6.406-6.406zm0 10.606c2.316 0 4.2-1.884 4.2-4.2 0-2.316-1.884-4.2-4.2-4.2a4.205 4.205 0 0 0-4.2 4.2c0 2.316 1.884 4.2 4.2 4.2zm6.675-12.476c.426 0 .844.172 1.144.473.302.3.474.718.474 1.144 0 .425-.172.843-.474 1.144-.301.3-.718.474-1.144.474a1.63 1.63 0 0 1-1.143-.474 1.631 1.631 0 0 1-.475-1.144c0-.426.174-.844.475-1.144.3-.301.718-.473 1.143-.473z"/>
</symbol><symbol id="party" viewBox="0 0 90 90"><path fill="#FFF" fill-opacity=".746" d="M10.321 79.662c.219.218.515.34.822.338.16-.003.316-.034.464-.093l40.312-17.564h.093a1.16 1.16 0 0 0 .37-.221c1.298-1.318-.937-4.829-3.914-8.42a27.218 27.218 0 0 1 2.56-1.925l-1.263-1.96a30.719 30.719 0 0 0-2.814 2.123 120.34 120.34 0 0 0-4.4-4.665c-1.656-1.667-3.753-3.696-5.86-5.504a29.066 29.066 0 0 0 5.593-10.31l-2.189-.746a27.009 27.009 0 0 1-5.165 9.505c-3.103-2.45-5.952-4.07-7.099-2.916-.083.097-.15.208-.196.327l-.163-.07-17.37 40.818c-.193.433-.106.94.22 1.283zm25.142-29.75v17.05l-3.474 1.516V46.039c1.158 1.306 2.316 2.648 3.474 3.872zM48.4 61.34l-4.83 2.088v-5.715a35.399 35.399 0 0 0 4.83 3.627zm-7.145 3.102l-3.475 1.563V52.29a128.046 128.046 0 0 0 3.475 3.359v8.793zm-11.581 5.062l-3.475 1.516V46.424l2.236-5.271c.347.606.764 1.248 1.239 1.912v26.439zm-5.79 2.519l-3.475 1.516V60.174l3.474-8.315v20.164zM40.917 48.85a64.032 64.032 0 0 1 9.021 10.74 63.81 63.81 0 0 1-10.666-9.084 64.032 64.032 0 0 1-9.021-10.741 63.81 63.81 0 0 1 10.666 9.085zM18.092 65.469v9.061l-4.737 2.065 4.737-11.126zM42.91 28.977l-2.305-.501c.781-3.621.809-7.366.081-10.998l2.316-.455c.792 3.948.76 8.02-.092 11.954zm10.56 21.307l-1.054-2.122a29.06 29.06 0 0 1 18.947-2.624l-.452 2.332a26.792 26.792 0 0 0-17.44 2.414zm-5.269-36.76v-3.498h2.316v3.499h3.474v2.332h-3.474v3.499h-2.316v-3.499h-3.474v-2.332h3.474zm25.478 22.16h2.316v3.498h3.474v2.332h-3.474v3.499H73.68v-3.499h-3.474v-2.332h3.474v-3.499zm4.215-24.294l-.556 3.254 2.316 2.263c.312.31.423.77.289 1.189a1.16 1.16 0 0 1-.926.793l-3.184.467-1.436 2.845a1.157 1.157 0 0 1-1.043.658c-.443 0-.848-.255-1.042-.658L70.9 19.298l-3.184-.467a1.16 1.16 0 0 1-.934-.79 1.172 1.172 0 0 1 .285-1.193l2.316-2.262-.544-3.196a1.17 1.17 0 0 1 1.68-1.259l2.848 1.516 2.849-1.516a1.17 1.17 0 0 1 1.68 1.26zm-3 5.692l1.46-.187-1.054-1.038a1.171 1.171 0 0 1-.336-1.026l.255-1.47-1.309.689a1.15 1.15 0 0 1-1.077 0l-1.308-.689.243 1.47a1.17 1.17 0 0 1-.336 1.026L70.38 16.86l1.46.222c.38.053.71.293.88.641l.648 1.33.66-1.342c.17-.34.494-.575.869-.63zM51.677 34.517c0-2.691 1.827-5.033 4.424-5.668a5.924 5.924 0 0 1 1.367-.163h1.158c1.918 0 3.474-1.567 3.474-3.499h2.316c0 3.22-2.592 5.831-5.79 5.831h-1.158a3.865 3.865 0 0 0-.823.093 3.494 3.494 0 0 0-2.652 3.406 5.826 5.826 0 0 1-4.18 5.598l-.637-2.24a3.495 3.495 0 0 0 2.501-3.358zm-8.106 9.33h-2.316c0-3.22 2.592-5.831 5.79-5.831v2.332c-1.919 0-3.474 1.566-3.474 3.499zm33.584-17.494h2.316v2.333h-2.316v-2.333zM59.783 55.51h2.316v2.333h-2.316V55.51zM28.515 24.021h2.316v2.332h-2.316v-2.332zm28.911-.044l.075-2.315 2.331.076-.075 2.315-2.331-.076zm2.357-10.452h2.316v2.332h-2.316v-2.332zm1.158 24.49h2.316v2.333h-2.316v-2.332zm6.948-10.496h2.317v2.333h-2.317v-2.333zm5.79 25.658h2.317v2.332H73.68v-2.332zM48.203 27.519h2.316v2.333h-2.316v-2.333zM31.989 11.192h2.316v2.333H31.99v-2.333z"/></symbol><symbol id="pencil" viewBox="0 0 17 18">
    <path fill="#3185FC" fill-rule="nonzero" d="M13.043.547l-1.993 2.01 3.957 3.99L17 4.537 13.043.547zM10.52 3.118L1.7 12.013l3.93 3.962 8.82-8.894-3.93-3.963zm-9.363 9.429L0 17.69l5.1-1.168-3.943-3.975z"/>
</symbol><symbol id="pending" viewBox="0 0 9 12">
    <path fill="#FFF" fill-rule="evenodd" d="M8.025 10.463c.338 0 .637.3.637.675 0 .374-.3.675-.675.675H.976a.672.672 0 0 1-.675-.676c0-.375.3-.675.675-.675H8.025zm-.6-8.925H.975A.672.672 0 0 1 .3.863C.3.487.6.188.975.188h7.05c.375 0 .675.3.675.675 0 .375-.3.675-.675.675h-.6zM7.237 9.9H1.763a3.01 3.01 0 0 1-.225-1.125c0-1.088 1.424-2.063 2.25-2.55.112-.075.15-.15.15-.262a.316.316 0 0 0-.15-.263c-.825-.487-2.25-1.5-2.25-2.55 0-.413.075-.788.224-1.125h5.475c.15.375.226.75.226 1.125 0 1.087-1.426 2.063-2.25 2.55-.113.075-.15.15-.15.263 0 .112.075.224.15.262.824.488 2.25 1.5 2.25 2.55 0 .412-.075.787-.226 1.125z"/>
</symbol><symbol id="photo-upload-small" viewBox="0 0 300 300">
    
    <g fill="none" fill-rule="evenodd">
        <path fill="#FFF" d="M-201-1097H899v2788H-201z"/>
        <g transform="translate(100 100)">
            <use stroke="#3185FC" stroke-dasharray="10,6" stroke-width="4" mask="url(#b)" xlink:href="#a"/>
            <path fill="#3185FC" fill-rule="nonzero" d="M45.616 24.514l-2.035 4.146H35.85C34.27 28.66 33 29.954 33 31.562v18.244c0 1.608 1.27 2.902 2.849 2.902H65.15c1.578 0 2.849-1.294 2.849-2.902V31.562c0-1.608-1.27-2.902-2.849-2.902H57.42l-2.035-4.146h-9.768zm4.884 6.634c5.146 0 9.36 4.294 9.36 9.536s-4.214 9.537-9.36 9.537c-5.146 0-9.36-4.295-9.36-9.537 0-5.242 4.215-9.536 9.36-9.536zm0 4.146c-2.946 0-5.29 2.389-5.29 5.39 0 3.002 2.344 5.39 5.29 5.39s5.29-2.388 5.29-5.39c0-3.001-2.344-5.39-5.29-5.39z"/>
            <text font-family="ProximaNova-Regular, Proxima Nova" font-size="10">
                <tspan x="5.505" y="66" fill="#82829A">Please drag a photo </tspan> <tspan x="27.505" y="78" fill="#82829A">or </tspan> <tspan x="39.105" y="78" fill="#3185FC">browse</tspan>
            </text>
        </g>
    </g>
</symbol><symbol id="qna" viewBox="0 0 90 90"><path fill="#FFF" fill-opacity=".746" d="M16.848 10C13.094 10 10 13.108 10 16.879V47.45c0 3.771 3.094 6.879 6.848 6.879h4.303l-1.26 12.754a2.295 2.295 0 0 0 1.288 2.33c.88.42 1.93.233 2.612-.467L38.342 54.33h3.567v12.205c0 3.115 2.502 5.743 5.611 5.756l13.268.072 7.751 7.046c.68.619 1.75.774 2.568.358.819-.416 1.331-1.376 1.237-2.293l-.5-5.11h2.52c3.122 0 5.636-2.666 5.636-5.781V44.848c0-3.115-2.497-5.772-5.611-5.78h-6.563v-22.19c0-3.77-3.094-6.878-6.848-6.878h-44.13zm0 4.586h44.13c1.304 0 2.283.983 2.283 2.293v22.165l-15.717-.024c-3.127-.008-5.635 2.641-5.635 5.756v4.968h-4.518a2.278 2.278 0 0 0-1.617.669L25.1 61.137l.88-8.885a2.3 2.3 0 0 0-.589-1.762 2.278 2.278 0 0 0-1.694-.746h-6.848c-1.304 0-2.283-.983-2.283-2.293V16.88c0-1.31.979-2.293 2.283-2.293zM38.08 16.09c-4.637 0-8.743 2.796-9.749 6.998a2.3 2.3 0 0 0 .548 2.337 2.276 2.276 0 0 0 2.324.565 2.29 2.29 0 0 0 1.55-1.827c.428-1.788 2.536-3.488 5.327-3.488 3.194 0 5.397 2.102 5.397 4.276 0 4.141-1.18 4.894-3.067 6.64-1.887 1.745-4.541 4.518-4.541 9.72A2.295 2.295 0 0 0 37 43.327c.711.417 1.59.417 2.302 0a2.295 2.295 0 0 0 1.132-2.013c0-3.922 1.15-4.58 3.067-6.354 1.918-1.774 4.541-4.637 4.541-10.007 0-5.085-4.668-8.861-9.962-8.861zm9.463 27.515l26.82.047c.59 0 1.07.455 1.07 1.194v21.735c0 .74-.487 1.195-1.07 1.195H69.3c-1.27.007-2.39 1.262-2.259 2.531l.167 1.696-3.995-3.63a2.301 2.301 0 0 0-1.521-.597l-14.148-.072c-.594 0-1.07-.431-1.07-1.17v-21.76c0-.74.494-1.171 1.07-1.17zm-9.392.764a2.288 2.288 0 0 0-2.282 2.293 2.288 2.288 0 0 0 2.282 2.293 2.288 2.288 0 0 0 2.283-2.293 2.288 2.288 0 0 0-2.283-2.293zm22.065 0a2.288 2.288 0 0 0-2.282 2.293v12.229a2.288 2.288 0 0 0 2.282 2.293 2.288 2.288 0 0 0 2.283-2.293v-12.23a2.288 2.288 0 0 0-2.283-2.292zm0 17.58a2.288 2.288 0 0 0-2.282 2.292 2.288 2.288 0 0 0 2.282 2.293 2.288 2.288 0 0 0 2.283-2.293 2.288 2.288 0 0 0-2.283-2.293z"/></symbol><symbol id="rejected" viewBox="0 0 12 12">
    <path fill="#FFF" fill-rule="evenodd" d="M4.08 6.024L0 1.944 1.945 0l4.079 4.08L10.103 0 12 1.945 7.92 6.024 12 10.103 10.103 12l-4.08-4.08L1.946 12 0 10.103z"/>
</symbol><symbol id="search" viewBox="0 0 90 90"><path fill-rule="nonzero" d="M88.49 82.379L65.317 59.457a36.243 36.243 0 0 0 7.49-22.122C72.809 17.215 56.53.9 36.455.9S0 17.316 0 37.435c0 20.12 16.28 36.436 36.354 36.436 8.19 0 15.78-2.703 21.873-7.307l23.27 22.922c1.998 1.902 5.095 1.902 7.092-.1 1.898-1.902 1.898-5.005-.1-7.007zM36.353 63.861c-14.581 0-26.367-11.811-26.367-26.426 0-14.614 11.886-26.425 26.367-26.425 14.482 0 26.367 11.911 26.367 26.425 0 14.514-11.785 26.426-26.367 26.426z"/></symbol><symbol id="studio" viewBox="0 0 90 90"><path fill="#FFF" fill-opacity=".746" d="M78 46.2C78 21.168 67.371 9 45.5 9 23.629 9 13 21.168 13 46.2v7.2h.036c-.012.204-.036.396-.036.6 0 3.372 1.95 6.492 4.815 8.364v3.576c0 6.312 5.152 11.46 11.495 11.46h12.58a2.41 2.41 0 0 1 2.407 2.4c0 .66.542 1.2 1.204 1.2.662 0 1.204-.54 1.204-1.2a2.41 2.41 0 0 1 2.407-2.4H61.69c6.343 0 11.495-5.148 11.495-11.46v-3.576C76.05 60.492 78 57.372 78 54c0-.204-.024-.396-.036-.6H78v-7.2zM15.407 54c0-3.78 3.262-7.14 7.223-7.716v15.42a8.352 8.352 0 0 1-2.408-.732V55.8c0-.66-.541-1.2-1.203-1.2-.663 0-1.204.54-1.204 1.2v3.528c-1.469-1.416-2.408-3.312-2.408-5.328zm9.63 10.2V41.4c0-2.652 2.155-4.8 4.815-4.8a4.806 4.806 0 0 1 4.815 4.8v24c0 2.652-2.155 4.8-4.815 4.8a4.806 4.806 0 0 1-4.815-4.8v-1.2zm45.74 1.74c0 4.992-4.08 9.06-9.087 9.06H49.11a4.781 4.781 0 0 0-3.611 1.656A4.781 4.781 0 0 0 41.889 75H29.31c-5.007 0-9.088-4.068-9.088-9.06v-2.376c.77.276 1.577.468 2.408.564V65.4c0 3.972 3.238 7.2 7.222 7.2 3.984 0 7.222-3.228 7.222-7.2v-24c0-3.972-3.238-7.2-7.222-7.2-3.984 0-7.222 3.228-7.222 7.2v2.472c-.41.048-.807.12-1.204.216V39c0-12.78 10.58-22.8 24.074-22.8 13.494 0 24.074 10.02 24.074 22.8v5.088a10.107 10.107 0 0 0-1.204-.216V41.4c0-3.972-3.238-7.2-7.222-7.2-3.984 0-7.222 3.228-7.222 7.2v24c0 3.972 3.238 7.2 7.222 7.2 3.984 0 7.222-3.228 7.222-7.2v-1.272a10.84 10.84 0 0 0 2.408-.564v2.376zM65.964 43.8v21.6c0 2.652-2.155 4.8-4.815 4.8a4.806 4.806 0 0 1-4.815-4.8v-24c0-2.652 2.155-4.8 4.815-4.8a4.806 4.806 0 0 1 4.815 4.8v2.4zm7.222 15.528V55.8c0-.66-.541-1.2-1.204-1.2-.662 0-1.203.54-1.203 1.2v5.184a8.743 8.743 0 0 1-2.408.732V46.284c3.96.576 7.223 3.936 7.223 7.716 0 2.016-.94 3.912-2.408 5.328zm-1.204-14.376V39c0-14.136-11.627-25.2-26.481-25.2C30.647 13.8 19.02 24.864 19.02 39v5.952a11.354 11.354 0 0 0-3.612 2.808V46.2c0-23.748 9.558-34.8 30.093-34.8s30.093 11.052 30.093 34.8v1.56a11.354 11.354 0 0 0-3.612-2.808z"/></symbol><symbol id="tennis" viewBox="0 0 120 120">
    <path fill="#82829A" fill-rule="nonzero" d="M110.387 9.417c13.864 13.864 13.622 36.84-9.086 59.552-12.857 12.852-25.684 18.618-36.977 18.618-1.921 0-3.788-.196-5.615-.522a71.841 71.841 0 0 0-3.509-.084c-7.353 0-18.156 1.046-22.805 5.691l-2.452 2.456.16.161a3.823 3.823 0 0 1 0 5.391l-18.579 18.567c-.495.498-1.264.75-2.188.75-1.825 0-4.25-.992-6.296-3.038-3.075-3.074-3.775-7.006-2.292-8.492L19.318 89.9A3.786 3.786 0 0 1 22 88.79c.965 0 1.927.367 2.668 1.086l2.467-2.467c5.729-5.734 5.976-20.833 5.546-27.264-.301-2.113-.186-7.458-.141-7.917.041-.448.024-.877.083-1.33.024 0 .141-.6.165-.6.27-1.995.755-4 1.359-6.022-8.558-2.937-14.818-10.717-15.348-20.161-.023-.431-.128-.834-.128-1.272 0-.367.092-.706.11-1.067A22.728 22.728 0 0 1 40.301.119C40.71.1 41.097 0 41.515 0c.388 0 .745.092 1.128.108 7.514.375 14.012 4.384 17.878 10.287 1.836-1.336 3.666-2.58 5.478-3.647-.004-.01.59-.324.897-.499.865-.494 2.632-1.362 2.632-1.362C75.907 1.707 82.107.019 87.868.019c8.716 0 16.483 3.368 22.519 9.398zm-51.768 2.37C55.177 6.46 49.367 2.824 42.636 2.45a20.396 20.396 0 0 0 8.768 15.673c.672.461 1.404.828 2.132 1.212 1.523.805 3.135 1.46 4.855 1.859.978.228 1.99.369 3.016.453.141-.123.288-.243.429-.361a20.613 20.613 0 0 0-.408-2.738 20.401 20.401 0 0 0-1.639-4.708 20.364 20.364 0 0 0-1.17-2.054zM41.844 52.815c-.077.677-.233 1.985-.235 1.985-.188 6.33 2.074 11.908 6.778 16.61 4.517 4.517 9.88 6.806 15.938 6.806 9.468 0 19.966-5.487 30.352-15.875 9.19-9.197 14.575-18.705 15.568-27.518.82-7.226-1.422-13.719-6.484-18.775-4.357-4.352-9.852-6.657-15.892-6.657-5.71 0-11.914 2.177-18.161 6.03 0 0-.005-.005-.005-.009-1.916 1.199-3.844 2.581-5.775 4.117.11.728.28 1.434.316 2.184.019.38.113.747.113 1.131 0 .416-.1.804-.122 1.212-.604 11.301-9.391 20.297-20.556 21.364-.924 2.508-1.56 4.979-1.835 7.395zM40.292 2.46C29.919 3.09 21.655 11.403 21.119 21.8c7.801.439 14.46 4.815 18.216 11.133.448.759.92 1.506 1.281 2.32.97 2.178 1.556 4.558 1.799 7.042.032.314.122.617.141.942.732-.036 1.423-.196 2.128-.31 9.372-1.478 16.624-9.216 17.205-18.862-.928-.045-1.812-.238-2.704-.389a23.076 23.076 0 0 1-2.741-.632A22.37 22.37 0 0 1 51.8 21.04c-.695-.399-1.396-.777-2.045-1.245-5.45-3.916-9.106-10.167-9.463-17.334zM21.147 24.143c.536 8.373 6.118 15.274 13.713 17.909.732.25 1.46.493 2.228.668 1.021.224 2.05.42 3.121.49-.113-1.798-.534-3.5-1.084-5.14-.329-.978-.704-1.93-1.166-2.837-3.195-6.222-9.436-10.616-16.812-11.09zm78.5 43.166c10.326-10.33 16.409-21.289 17.589-31.701 1.067-9.427-1.876-17.91-8.503-24.536C103.032 5.376 95.82 2.36 87.872 2.36c-5.327 0-11.148 1.556-17.293 4.621-.023.015-1.698.838-2.522 1.306l-.453.25-.348.194c-.024.008-.041.026-.064.036-1.853 1.089-3.684 2.348-5.505 3.678.732 1.428 1.345 2.919 1.77 4.503 1.666-1.281 3.332-2.48 5.007-3.524.068-.04.136-.083.205-.113 6.79-4.155 13.251-6.264 19.2-6.264 6.676 0 12.743 2.544 17.548 7.344 5.582 5.577 8.059 12.733 7.156 20.696-1.052 9.334-6.666 19.333-16.24 28.909-10.836 10.836-21.905 16.56-32.008 16.56-6.705 0-12.625-2.52-17.594-7.49-5.163-5.157-7.67-11.326-7.464-18.331l.248-2.188c.256-2.27.796-4.576 1.582-6.906-.282-.03-.572-.066-.86-.085-1.321-.075-2.608-.293-3.861-.577-.559 1.872-1.012 3.744-1.268 5.628a2.14 2.14 0 0 1-.105.449 2.22 2.22 0 0 1-.068.248c-.015.145-.015.29-.019.43-.01.238-.017.47-.041.713-.051.676-.123 5.601.128 7.366.164 2.367 1.234 21.799-6.21 29.25l-2.466 2.466a2.33 2.33 0 0 1-1.656.688c-.591 0-1.18-.226-1.634-.664a1.457 1.457 0 0 0-1.034-.421c-.39 0-.751.15-1.026.421L2.404 110.121c-.243.41-.073 2.811 2.292 5.18 1.739 1.74 3.588 2.352 4.64 2.352.344 0 .523-.062.564-.09L28.445 99.02a1.47 1.47 0 0 0 0-2.076c-.914-.916-1.074-2.558-.16-3.473l2.454-2.459c5.55-5.544 17.709-6.372 24.462-6.372 1.336 0 2.563.031 3.624.086.1 0 .202.012.298.03 1.82.326 3.522.487 5.202.487 11.371 0 23.583-6.2 35.322-17.935zm-56.23 9.071c.738.732 1.52 1.445 2.33 2.113a2.348 2.348 0 0 1 .773 2.435 2.354 2.354 0 0 1-1.913 1.693c-2.266.339-4.074.703-5.688 1.154a2.435 2.435 0 0 1-.627.081 2.347 2.347 0 0 1-2.261-2.964c.462-1.667.828-3.479 1.153-5.703a2.356 2.356 0 0 1 1.69-1.917 2.35 2.35 0 0 1 2.439.764c.768.935 1.436 1.677 2.104 2.344zm-5.124 5.136c1.963-.544 3.976-.917 5.967-1.213a34.86 34.86 0 0 1-2.499-2.266 34.876 34.876 0 0 1-2.256-2.508c-.292 1.995-.668 4.014-1.212 5.987z"/>
</symbol><symbol id="training" viewBox="0 0 90 90"><path fill="#FFF" fill-opacity=".746" d="M77.5 30H35c-13.784 0-25 11.215-25 25s11.216 25 25 25c13.196 0 24.036-10.275 24.94-23.245l18.44-6.914A2.5 2.5 0 0 0 80 47.5v-15a2.5 2.5 0 0 0-2.5-2.5zM75 45.767l-18.38 6.891A2.503 2.503 0 0 0 55 55c0 11.028-8.972 20-20 20-11.027 0-20-8.972-20-20s8.973-20 20-20h40v10.767zM32.5 22.5v-10a2.5 2.5 0 1 1 5 0v10a2.5 2.5 0 1 1-5 0zm11.113 2.08a2.498 2.498 0 0 1-.693-3.467l5-7.5a2.496 2.496 0 0 1 3.467-.693 2.498 2.498 0 0 1 .693 3.467l-5 7.5a2.5 2.5 0 0 1-3.467.693zM17.92 16.387a2.498 2.498 0 0 1 .693-3.467 2.497 2.497 0 0 1 3.467.693l5 7.5a2.5 2.5 0 1 1-4.16 2.773l-5-7.5zM22.5 55c0 6.892 5.608 12.5 12.5 12.5S47.5 61.892 47.5 55 41.892 42.5 35 42.5 22.5 48.108 22.5 55zm20 0c0 4.136-3.364 7.5-7.5 7.5s-7.5-3.364-7.5-7.5 3.364-7.5 7.5-7.5 7.5 3.364 7.5 7.5z"/></symbol><symbol id="twitter" viewBox="0 0 25 20">
    <path fill-rule="evenodd" d="M25 2.38c-.92.4-1.907.673-2.945.794A5.08 5.08 0 0 0 24.31.386c-.993.578-2.09.997-3.258 1.224A5.155 5.155 0 0 0 17.308.018c-2.833 0-5.13 2.257-5.13 5.04 0 .395.046.78.134 1.15A14.644 14.644 0 0 1 1.742.938a4.94 4.94 0 0 0-.694 2.534c0 1.75.906 3.293 2.281 4.196a5.196 5.196 0 0 1-2.323-.632V7.1c0 2.442 1.768 4.48 4.113 4.943-.43.114-.882.177-1.351.177-.331 0-.651-.032-.965-.094.653 2.005 2.546 3.462 4.79 3.502a10.402 10.402 0 0 1-6.37 2.155c-.414 0-.822-.025-1.223-.07a14.678 14.678 0 0 0 7.861 2.27c9.434 0 14.591-7.683 14.591-14.346l-.017-.652A10.148 10.148 0 0 0 25 2.38z"/>
</symbol></svg>