<svg xmlns="http://www.w3.org/2000/svg" width="90" height="90" viewBox="0 0 90 90"><path fill="#FFF" fill-opacity=".746" d="M35.151 74a1.74 1.74 0 0 1-.752-.17 1.772 1.772 0 0 1-1.003-1.6v-9.114h-17.25c-3.389 0-6.146-2.781-6.146-6.199V22.198C10 18.781 12.757 16 16.146 16h57.708C77.243 16 80 18.78 80 22.198v34.72c0 3.417-2.757 6.198-6.146 6.198H48.989L36.262 73.6c-.32.263-.713.399-1.11.399zM16.146 19.54c-1.453 0-2.635 1.193-2.635 2.658v34.72c0 1.465 1.182 2.657 2.635 2.657h19.005c.97 0 1.756.793 1.756 1.77v7.152l10.345-8.523a1.749 1.749 0 0 1 1.11-.399h25.492c1.453 0 2.635-1.192 2.635-2.658V22.198c0-1.465-1.182-2.657-2.635-2.657H16.146zM46.702 45.3H33.749c-.97 0-1.755-.792-1.755-1.77 0-.977.786-1.77 1.755-1.77h12.953c.969 0 1.755.793 1.755 1.77 0 .978-.786 1.77-1.755 1.77zm9.549-7.93H33.749c-.97 0-1.755-.793-1.755-1.77 0-.978.786-1.77 1.755-1.77h22.502c.97 0 1.755.792 1.755 1.77 0 .977-.786 1.77-1.755 1.77z"/></svg>