<svg xmlns="http://www.w3.org/2000/svg" xmlns:xlink="http://www.w3.org/1999/xlink" width="120" height="120" viewBox="0 0 120 120">
    <defs>
        <path id="codeId" d="M105.373 15H14.522C11.998 15 10 17.003 10 19.534v65.06c0 2.426 1.998 4.535 4.522 4.535h36.593v8.224h-8.097c-1.262 0-2.208 1.055-2.208 2.215v4.218c0 1.265 1.051 2.214 2.208 2.214h33.964c1.262 0 2.208-1.054 2.208-2.214v-4.218c0-1.266-1.051-2.215-2.208-2.215h-8.097V89.13h36.593c2.524 0 4.522-2.004 4.522-4.535v-65.06c-.105-2.53-2.103-4.534-4.627-4.534zM59.947 84.173c-1.682 0-3.154-1.371-3.154-3.164 0-1.687 1.367-3.163 3.154-3.163 1.683 0 3.155 1.37 3.155 3.163 0 1.793-1.472 3.164-3.155 3.164zm41.851-10.861H18.097V23.119h83.701v50.193zm-59.621-10.65c.525.527 1.472.527 1.998 0l3.575-3.586c.525-.527.525-1.476 0-2.003l-8.833-8.857 8.833-8.858c.525-.527.525-1.476 0-2.003l-3.575-3.586c-.526-.527-1.473-.527-1.998 0l-13.46 13.392c-.526.527-.526 1.476 0 2.004l13.46 13.497zm30.073-3.586l3.575 3.586c.526.527 1.473.527 1.998 0l13.46-13.497c.526-.528.526-1.477 0-2.004L77.718 33.77c-.526-.527-1.472-.527-1.998 0l-3.575 3.586c-.526.527-.526 1.476 0 2.003l8.833 8.858-8.833 8.857c-.42.527-.42 1.476.105 2.003zM52.692 64.56h4.311c.631 0 1.157-.422 1.262-.95L68.57 33.665c.315-.95-.316-1.898-1.262-1.898h-4.311c-.631 0-1.157.422-1.262.949L51.43 62.662c-.42.949.316 1.898 1.262 1.898z"/>
        <filter id="codeFilter" width="130%" height="133%" x="-15%" y="-16.5%" filterUnits="objectBoundingBox">
            <feOffset in="SourceAlpha" result="shadowOffsetOuter1"/>
            <feGaussianBlur in="shadowOffsetOuter1" result="shadowBlurOuter1" stdDeviation="5"/>
            <feColorMatrix in="shadowBlurOuter1" values="0 0 0 0 0 0 0 0 0 0 0 0 0 0 0 0 0 0 0.251896513 0"/>
        </filter>
    </defs>
    <g fill="none" fill-rule="evenodd">
        <use fill="#000" filter="url(#codeFilter)" xlink:href="#codeId"/>
        <use fill="#FFF" xlink:href="#codeId"/>
    </g>
</svg>
