<svg xmlns="http://www.w3.org/2000/svg" width="70" height="70" viewBox="0 0 70 70">
    <path fill="#63EACB" fill-rule="nonzero" d="M18.72 61.994c-.398 0-.79-.119-1.128-.359a1.965 1.965 0 0 1-.79-2.039l3.952-17.867L7.586 28.732a1.971 1.971 0 0 1-.451-2.118 1.956 1.956 0 0 1 1.763-1.252l17.084-.578L32.68 8.117c.597-1.491 3.044-1.488 3.645 0L43.02 24.76l17.088.606c.782.028 1.477.52 1.76 1.252a1.986 1.986 0 0 1-.448 2.118L48.271 41.737 52.2 59.608a1.969 1.969 0 0 1-2.974 2.086l-14.727-9.38-14.727 9.373a1.96 1.96 0 0 1-1.053.307zm15.779-13.982c.365 0 .734.102 1.057.307l11.788 7.502-3.146-14.308a1.967 1.967 0 0 1 .538-1.823l10.677-10.557-13.808-.488a1.97 1.97 0 0 1-1.756-1.228L34.5 14.12l-5.35 13.325a1.97 1.97 0 0 1-1.756 1.232L13.6 29.14l10.684 10.55c.484.476.684 1.169.539 1.83l-3.163 14.3 11.785-7.498a1.955 1.955 0 0 1 1.053-.311z"/>
</svg>
