<svg xmlns="http://www.w3.org/2000/svg" width="70" height="70" viewBox="0 0 70 70">
    <path fill="#63EACB" fill-rule="nonzero" d="M30.732 19.436c-.015-3.167-2.296-5.855-5.385-6.346-3.088-.491-6.073 1.36-7.046 4.37a1.769 1.769 0 0 0-.07.29l-.195 1.371a8.665 8.665 0 0 0-2.92 4.141L9.14 39.594a12.123 12.123 0 0 0-.714 2.006v.052c-.044.123-.075.25-.092.38-1.085 4.557.52 9.34 4.123 12.282a11.847 11.847 0 0 0 12.724 1.477c4.167-2.04 6.8-6.33 6.76-11.018 0-.344 0-.688-.051-1.027.033-.135.05-.274.052-.414l-.04-8.44h7.202l-.046 8.44c.001.14.019.279.052.414 0 .339-.052.683-.052 1.027-.036 4.687 2.598 8.976 6.764 11.014a11.847 11.847 0 0 0 12.722-1.48c3.602-2.943 5.207-7.725 4.122-12.281a1.768 1.768 0 0 0-.092-.374v-.046a12.12 12.12 0 0 0-.743-2.03l-5.97-16.331a8.66 8.66 0 0 0-2.92-4.141l-.179-1.36a1.816 1.816 0 0 0-.069-.297c-.974-3.011-3.961-4.862-7.052-4.367-3.09.494-5.37 3.187-5.38 6.356v.064l.064 2.164a8.694 8.694 0 0 0-1.151 4.305v.175h-7.342v-.175a8.694 8.694 0 0 0-1.151-4.31l.063-2.164s-.012-.035-.012-.059zm-6.374-2.916c1.126.003 2.15.66 2.632 1.691a8.42 8.42 0 0 0-3.737-.88c-.32.001-.639.02-.956.058a2.895 2.895 0 0 1 2.061-.88v.011zm-4.416 36.885a8.448 8.448 0 0 1-6.723-3.313 8.684 8.684 0 0 1-1.528-7.413l.645-1.75c1.874-3.807 6.209-5.662 10.21-4.368 4.002 1.294 6.474 5.35 5.824 9.552-.65 4.204-4.228 7.3-8.428 7.292zm0-20.781a11.759 11.759 0 0 0-4.986 1.166l3.408-9.332V24.4c.788-2.414 3.186-3.895 5.665-3.498 2.48.396 4.31 2.554 4.325 5.096l.035 6.999v.163a1.772 1.772 0 0 0 0 .187v2.916a11.862 11.862 0 0 0-8.447-3.64zm31.093 20.781c-4.196.002-7.767-3.092-8.417-7.29-.65-4.2 1.817-8.252 5.812-9.55 3.994-1.299 8.328.543 10.211 4.34l.65 1.75a8.684 8.684 0 0 1-1.518 7.432 8.448 8.448 0 0 1-6.738 3.318zM56.02 33.79a11.796 11.796 0 0 0-13.473 2.462l.052-10.237c0-2.547 1.827-4.718 4.31-5.122 2.484-.405 4.89 1.076 5.68 3.495v.058l3.431 9.344zm-9.397-17.282a2.86 2.86 0 0 1 2.062.875 8.528 8.528 0 0 0-.968-.058 8.404 8.404 0 0 0-3.73.88 2.917 2.917 0 0 1 2.636-1.697zM39.14 29.643v1.75h-7.284v-1.75h7.284z"/>
</svg>
