<svg xmlns="http://www.w3.org/2000/svg" width="70" height="70" viewBox="0 0 70 70">
    <path fill="#63EACB" fill-rule="nonzero" d="M56.238 44.895a1.483 1.483 0 0 0-1.404-.983h-4.988v-7.594c0-1.9-1.55-3.439-3.46-3.439h-.243v-1.965a4.866 4.866 0 0 0-1.305-3.306L30.556 12.965a4.967 4.967 0 0 0-6.293-.668l-6.836 4.524a4.38 4.38 0 0 0-1.943 4.25l1.335 10.07a6.505 6.505 0 0 0 1.596 4.101l2.24 2.589v6.081H16.6a1.483 1.483 0 0 0-1.404.983l-3.955 11.824c-.147.447-.07.938.208 1.32.278.381.722.608 1.196.61H58.79c.477 0 .925-.227 1.205-.611.279-.385.355-.88.204-1.33l-3.96-11.813zm-9.358-8.577v14.737H23.606v-9.417l3.09 5.266a4.906 4.906 0 0 0 2.471 2.083l.164.064c.569.22 1.174.333 1.784.334a4.906 4.906 0 0 0 4.157-2.324 4.841 4.841 0 0 0 .198-4.735l-3.312-6.5h14.228c.273 0 .494.22.494.492zM19.77 30.84l-1.355-10.15a1.47 1.47 0 0 1 .648-1.414l6.847-4.524a1.987 1.987 0 0 1 2.516.27l14.252 14.644c.32.353.496.812.494 1.287v1.965H30.665l-.761-1.504a1.486 1.486 0 0 0-2.565-.145 1.466 1.466 0 0 0-.085 1.472l5.552 10.91a1.906 1.906 0 0 1-.295 2.148 1.936 1.936 0 0 1-2.123.5l-.163-.064a1.935 1.935 0 0 1-.988-.82l-3.668-6.278a4.911 4.911 0 0 0-.495-.718l-4.424-5.099a3.568 3.568 0 0 1-.87-2.303c0-.06-.003-.119-.01-.177zM14.703 55.7l2.97-8.841h2.967v4.224H19.21c-.819 0-1.483.66-1.483 1.474s.664 1.474 1.483 1.474h31.955c.819 0 1.483-.66 1.483-1.474s-.664-1.474-1.483-1.474h-1.32V46.86h3.915l2.966 8.876-42.024-.034z"/>
</svg>
