<svg xmlns="http://www.w3.org/2000/svg" width="70" height="70" viewBox="0 0 70 70">
    <g fill="#63EACB" fill-rule="nonzero" stroke="#63EACB" stroke-width=".556">
        <path d="M19.367 18.332c.717 0 1.299-.586 1.299-1.31v-1.9c0-1.386 1.118-2.513 2.49-2.513h.93c1.373 0 2.49 1.127 2.49 2.513v1.9c0 .723.583 1.31 1.3 1.31.717 0 1.3-.587 1.3-1.31v-1.9c0-2.831-2.284-5.135-5.09-5.135h-.93c-2.805 0-5.088 2.304-5.088 5.135v1.9c0 .723.581 1.31 1.299 1.31zM41.148 18.332c.717 0 1.3-.586 1.3-1.31v-1.9c0-1.386 1.117-2.513 2.49-2.513h.93c1.373 0 2.49 1.127 2.49 2.513v1.9c0 .723.583 1.31 1.3 1.31.717 0 1.299-.587 1.299-1.31v-1.9c0-2.831-2.283-5.135-5.09-5.135h-.929c-2.806 0-5.09 2.304-5.09 5.135v1.9c0 .723.582 1.31 1.3 1.31zM8.054 50.013v6.031c0 2.044 1.648 3.707 3.673 3.707h4.014c2.025 0 3.673-1.663 3.673-3.707v-6.031a3.709 3.709 0 0 0 2.633-3.556v-8.69c0-3.464-2.792-6.28-6.224-6.28h-4.178c-3.432 0-6.224 2.816-6.224 6.28v8.69a3.708 3.708 0 0 0 2.633 3.556zm-.035-12.246c0-2.018 1.626-3.66 3.626-3.66h4.178c2 0 3.626 1.642 3.626 3.66v8.69a1.08 1.08 0 0 1-1.075 1.085h-1.557v8.502a1.08 1.08 0 0 1-1.075 1.085h-4.014a1.081 1.081 0 0 1-1.075-1.085v-8.502H9.095a1.081 1.081 0 0 1-1.075-1.085v-8.69H8.02zM32.505 59.752h4.014c2.025 0 3.673-1.663 3.673-3.707v-6.032a3.709 3.709 0 0 0 2.633-3.555v-8.691c0-3.464-2.792-6.28-6.224-6.28h-4.178c-3.432 0-6.225 2.816-6.225 6.28v8.69a3.71 3.71 0 0 0 2.634 3.556v6.032c0 2.044 1.648 3.707 3.673 3.707zm-3.709-13.295v-8.69c0-2.018 1.628-3.66 3.627-3.66h4.178c2 0 3.626 1.642 3.626 3.66v8.69a1.08 1.08 0 0 1-1.075 1.085h-1.558v8.502a1.08 1.08 0 0 1-1.075 1.085h-4.013a1.081 1.081 0 0 1-1.075-1.085v-8.502h-1.558a1.081 1.081 0 0 1-1.077-1.085zM28.958 24.74c0 2.831 2.283 5.135 5.09 5.135h.928c2.807 0 5.09-2.304 5.09-5.136v-1.898c0-2.832-2.283-5.136-5.09-5.136h-.928c-2.807 0-5.09 2.304-5.09 5.136v1.898zm2.598-1.9c0-1.386 1.118-2.513 2.492-2.513h.928c1.374 0 2.492 1.127 2.492 2.514v1.898c0 1.387-1.118 2.514-2.492 2.514h-.928c-1.374 0-2.492-1.127-2.492-2.514v-1.898zM8.002 24.74c0 2.831 2.284 5.135 5.09 5.135h.929c2.806 0 5.09-2.304 5.09-5.136v-1.898c0-2.832-2.284-5.136-5.09-5.136h-.93c-2.805 0-5.09 2.304-5.09 5.136v1.898zm2.598-1.9c0-1.386 1.118-2.513 2.492-2.513h.929c1.373 0 2.49 1.127 2.49 2.514v1.898c0 1.387-1.117 2.514-2.49 2.514h-.93c-1.373 0-2.49-1.127-2.49-2.514v-1.898zM53.2 31.486c-3.431 0-6.223 2.817-6.223 6.28v8.691a3.708 3.708 0 0 0 2.633 3.556v6.031c0 2.044 1.648 3.707 3.673 3.707h4.013c2.026 0 3.674-1.663 3.674-3.707v-6.031a3.709 3.709 0 0 0 2.633-3.556v-8.69c0-3.464-2.792-6.28-6.224-6.28h-4.178zm7.805 6.28v8.691a1.08 1.08 0 0 1-1.075 1.085h-1.558v8.502c0 .599-.482 1.085-1.075 1.085h-4.013a1.081 1.081 0 0 1-1.075-1.085v-8.502H50.65a1.081 1.081 0 0 1-1.075-1.085v-8.69c0-2.018 1.627-3.66 3.626-3.66h4.179c1.998 0 3.624 1.642 3.624 3.66zM49.737 24.74c0 2.831 2.283 5.135 5.089 5.135h.93c2.806 0 5.089-2.304 5.089-5.136v-1.898c0-2.832-2.283-5.136-5.09-5.136h-.93c-2.805 0-5.088 2.304-5.088 5.136v1.898zm2.598-1.9c0-1.386 1.118-2.513 2.49-2.513h.93c1.374 0 2.491 1.127 2.491 2.514v1.898c0 1.387-1.117 2.514-2.49 2.514h-.93c-1.373 0-2.491-1.127-2.491-2.514v-1.898z"/>
    </g>
</svg>
