<svg xmlns="http://www.w3.org/2000/svg" width="70" height="70" viewBox="0 0 70 70">
    <g fill="#63EACB" fill-rule="nonzero">
        <path d="M33.263 42.48c.018.018.107.127.113.127-.024 0-.12-.187-.066-.072.024.048.054.102.084.144.078.12-.054-.108-.036-.096.048.018.06.222.078.276.042.12-.018-.108-.012-.12-.018.042.006.15.006.204-.006.294.06-.156 0 .042-.018.054-.03.108-.042.156-.012.048-.078.132 0 .012.12-.186-.107.132-.096.15-.011-.018.198-.216.03-.042a.656.656 0 0 0-.06.066c-.185.193-.376.379-.567.57l-2.192 2.205-.269.27c-.03.03-.06.06-.09.084-.155.15.156-.084-.03.018a.81.81 0 0 1-.143.079c.012.006.245-.079.06-.03-.048.012-.107.024-.155.042-.126.042-.09-.054.077-.006-.06-.018-.173.006-.239.006-.238 0 .084-.006.078.018 0 .006-.173-.042-.155-.036-.042-.012-.078-.03-.114-.036-.131-.037.233.138.024.006a1.038 1.038 0 0 0-.107-.067c-.114-.054.071.042.071.067 0-.006-.113-.103-.125-.115l-.018-.018c-.263-.258-.52-.522-.782-.786l-3.925-3.946-4.7-4.727c-.879-.883-1.757-1.754-2.63-2.643a.718.718 0 0 1-.065-.072.686.686 0 0 0-.083-.096c.03-.006.143.234.041.036-.018-.036-.035-.078-.06-.108-.089-.132.06.21.025.06-.018-.06-.036-.228-.072-.276.006.012.012.246.018.12v-.204c-.006-.204-.06.246.012-.042l.036-.12c.041-.163.047.024-.03.06.024-.012.173-.337.083-.163-.071.133.036-.036.078-.078l.173-.174 2.133-2.144.716-.72c.03-.03.06-.06.09-.085.131-.126 0 .054-.042.03.006.006.096-.06.108-.066.018-.012.101-.042.107-.06-.149.06-.179.072-.095.042.024-.012.053-.018.077-.024.054-.018.108-.024.156-.042.131-.042-.12.03-.12.012 0-.012.245 0 .281 0 .125-.006-.108-.012-.12-.018.024.018.12.024.156.036.036.012.131.054.155.048-.06.012-.203-.108-.06-.018l.144.09c-.012.006-.168-.156-.072-.06.03.03.072.066.096.09l.018.018.09.09c.13.133.262.265.393.397l3.65 3.67 4.76 4.786 3.03 3.045c.023.036.077.084.125.138.442.445 1.254.481 1.69 0 .436-.48.472-1.225 0-1.7l-2.336-2.348-4.844-4.87-4.115-4.139c-.263-.264-.526-.534-.789-.792-.621-.607-1.487-.961-2.353-.871-.789.084-1.44.432-1.995.99l-2.18 2.193c-.24.24-.484.48-.723.727a3.096 3.096 0 0 0-.819 2.78c.15.781.657 1.328 1.189 1.862l1.457 1.466 4.707 4.733 4.39 4.414 1.058 1.063c1.17 1.177 2.945 1.28 4.211.18.64-.558 1.213-1.213 1.81-1.814.735-.738 1.655-1.465 2.037-2.468.412-1.075.072-2.3-.699-3.111-.43-.457-1.26-.469-1.69 0-.454.492-.466 1.219-.006 1.705zM50.878 24.769c.018.018.107.126.113.126-.024 0-.12-.186-.066-.072.024.048.054.102.084.144.078.12-.054-.108-.036-.096.048.018.06.222.078.276.042.12-.018-.108-.012-.12-.018.042.006.15.006.204-.006.295.06-.156 0 .042-.018.054-.03.108-.042.156-.012.048-.078.133 0 .012.12-.186-.107.133-.095.15-.012-.017.197-.216.03-.041-.018.018-.042.042-.06.066-.185.192-.377.378-.568.57l-2.192 2.204-.269.27c-.03.03-.06.06-.09.085-.155.15.156-.084-.03.018a.81.81 0 0 1-.143.078c.012.006.245-.078.06-.03-.048.012-.107.024-.155.042-.126.042-.09-.054.078-.006-.06-.018-.174.006-.24.006-.238 0 .084-.006.078.018 0 .006-.173-.042-.155-.036-.042-.012-.078-.03-.114-.036-.131-.036.233.138.024.006a1.038 1.038 0 0 0-.107-.066c-.114-.054.072.042.072.066 0-.006-.114-.102-.126-.114l-.018-.018c-.263-.259-.52-.523-.782-.787a73001069.131 73001069.131 0 0 1-8.626-8.673c-.878-.883-1.756-1.754-2.628-2.642-.024-.024-.048-.048-.066-.073a.686.686 0 0 0-.083-.096c.03-.006.143.235.042.036-.018-.036-.036-.078-.06-.108-.09-.132.06.21.024.06-.018-.06-.036-.228-.072-.276.006.012.012.246.018.12v-.204c-.006-.204-.06.246.012-.042l.036-.12c.042-.162.048.024-.03.06.024-.012.173-.336.083-.162-.071.132.036-.036.078-.078l.173-.174 2.133-2.145.717-.72c.03-.03.06-.06.09-.084.13-.127 0 .054-.043.03.006.006.096-.06.108-.066.018-.012.101-.043.107-.06-.149.06-.179.072-.095.042.024-.013.054-.019.077-.025.054-.018.108-.024.156-.042.131-.042-.12.03-.12.012 0-.012.245 0 .281 0 .126-.006-.107-.012-.12-.018.025.018.12.024.156.036.036.012.131.055.155.049-.06.012-.203-.109-.06-.018l.144.09c-.012.006-.167-.157-.072-.06.03.03.072.066.096.09l.018.018.09.09.393.396 3.65 3.67 4.76 4.787 3.03 3.045c.023.036.071.084.125.138.442.444 1.254.48 1.69 0 .436-.48.472-1.225 0-1.7l-2.335-2.348-4.845-4.871-4.115-4.138c-.263-.265-.526-.535-.789-.793-.621-.607-1.487-.961-2.353-.871-.789.084-1.44.432-1.995.991l-2.18 2.192c-.24.24-.484.48-.723.727a3.096 3.096 0 0 0-.819 2.78c.15.782.657 1.328 1.19 1.863l1.457 1.465 4.706 4.733 4.39 4.414 1.058 1.063c1.17 1.177 2.945 1.28 4.211.18.64-.558 1.213-1.213 1.81-1.813.735-.74 1.655-1.466 2.037-2.469.412-1.075.072-2.3-.699-3.11-.43-.457-1.26-.47-1.69 0-.454.498-.466 1.218-.006 1.705z"/>
        <path d="M43.985 27.351l-4.546 4.57-4.564 4.59-2.927 2.942h1.69l-3.195-3.213-5.095-5.123-1.177-1.183v1.7l4.068-4.09 6.481-6.517 1.487-1.495h-1.69l3.196 3.213 5.095 5.123 1.177 1.183c.442.444 1.254.48 1.69 0 .436-.48.472-1.225 0-1.7l-3.196-3.213-5.095-5.123-1.177-1.183a1.209 1.209 0 0 0-1.69 0l-4.068 4.09-6.48 6.516-1.488 1.496a1.225 1.225 0 0 0 0 1.7l3.196 3.213 5.095 5.123 1.176 1.183c.454.457 1.231.463 1.69 0l4.373-4.396 4.845-4.871c.943-.95 1.881-1.892 2.825-2.841.442-.444.478-1.261 0-1.7-.484-.432-1.225-.468-1.696.006z"/>
        <path d="M59.27 55.297a3.682 3.682 0 0 0-.161.15c-.12.115.179-.108.036-.03-.06.036-.287.127-.329.187.06-.09.197-.072.054-.03-.054.018-.102.036-.155.048-.066.018-.132.03-.203.048-.09.018-.054.012.113-.012-.042.006-.084.006-.125.006-.036 0-.359.018-.37-.006-.007-.012.31.066.07.006l-.16-.036c-.054-.012-.108-.036-.156-.048-.257-.072.162.096.018.012-.048-.03-.101-.048-.15-.078-.029-.019-.28-.163-.125-.073.138.085-.095-.09-.143-.138l-.024-.024-.101-.102-1.075-1.08-4.54-4.565c-1.99-2.018-3.99-4.037-5.997-6.049l-5.364-5.393c-.884-.889-1.739-1.814-2.658-2.673l-.036-.036v1.7l3.464-3.483h-1.69a45186095.476 45186095.476 0 0 0 7.335 7.375l6.045 6.078 4.82 4.847 1.314 1.321.27.27.017.019.006.006c.018.024-.036-.043.06.066.03.03.06.066.083.096a1.01 1.01 0 0 0-.053-.072c-.006.012.155.264.173.288.137.228-.054-.18-.006-.018.018.066.042.132.066.198l.036.162c.03.126-.042.096-.006-.072-.024.12.011.288.006.409-.006.246.005-.079.011-.073.012.013-.035.18-.041.205-.012.054-.03.108-.048.162-.054.174.036.114.012-.018.012.078-.126.228-.161.294-.102.186.023-.006.035-.036-.024.066-.113.138-.167.192-.436.45-.484 1.256 0 1.7.472.432 1.225.48 1.69 0 1.422-1.477 1.374-3.79-.06-5.237l-.949-.955-4.444-4.469-6.093-6.126-5.477-5.507c-.914-.92-1.81-1.862-2.748-2.763l-.036-.036a1.209 1.209 0 0 0-1.69 0l-3.465 3.483a1.225 1.225 0 0 0 0 1.7l2.258 2.27 5.263 5.292 6.14 6.174c1.59 1.597 3.172 3.189 4.76 4.787l1.207 1.213c.06.06.12.126.186.186.92.9 2.216 1.261 3.464.961.64-.15 1.219-.505 1.69-.961.449-.438.472-1.267 0-1.7-.49-.456-1.212-.48-1.696-.012zM37.964 59.093H10.726c-.108 0-.407-.048-.072.024-.096-.018-.132-.084.077.036.21.12.138.12.072.048.036.042.066.084.102.126.065.175.077.205.036.078l.023.163c.018-.036 0-.127 0-.169v-.858-1.964c0-.024.012-.109 0-.127.018.024-.071.295-.006.09a.615.615 0 0 1-.16.277c.143-.156-.108.048-.15.078-.102.036-.102.042 0 .012-.167.018-.221.024-.161.024.012.006.053 0 .065 0 .162.012.323 0 .484 0h25.506c.448 0 .914.036 1.362 0 .077-.006.161.03-.108-.024.21.042-.09-.066-.137-.09a.419.419 0 0 0-.06-.048c.09.09.072.066-.048-.072-.018-.03-.083-.27-.035-.078-.006-.054-.018-.108-.024-.169-.018.024 0 .139 0 .169v2.81c0 .024-.018.12 0 .139-.006-.012.047-.253.018-.127-.03.103.125-.216.149-.24-.132.144.042-.03.072-.048.047-.018.101-.042.149-.06-.137.042-.108.036.084 0-.622.036-1.225.529-1.195 1.201.03.625.526 1.238 1.195 1.201 1.021-.054 1.845-.792 1.905-1.843.012-.18.006-.36.006-.547v-2.144c0-.168.006-.342 0-.51-.036-1.028-.8-1.862-1.834-1.916-.107-.006-.215-.006-.322-.006H14.99c-1.475 0-2.956-.018-4.438 0-1.063.012-1.923.798-1.97 1.88-.025.534 0 1.068 0 1.603 0 .535-.025 1.07 0 1.604.047 1.08.907 1.867 1.97 1.88 1.476.018 2.957 0 4.438 0h22.974c.627 0 1.224-.553 1.194-1.202-.03-.648-.525-1.2-1.194-1.2z"/>
    </g>
</svg>
