<svg xmlns="http://www.w3.org/2000/svg" width="25" height="25" viewBox="0 0 25 25">
    <path fill-rule="evenodd" d="M18 0a6.869 6.869 0 0 1 6.862 6.861v11.14a6.869 6.869 0 0 1-6.861 6.861H6.86A6.869 6.869 0 0 1 0 18.001V6.861A6.869 6.869 0 0 1 6.86 0H18zm4.656 18.001V6.861a4.66 4.66 0 0 0-4.655-4.655H6.86A4.66 4.66 0 0 0 2.206 6.86v11.14a4.66 4.66 0 0 0 4.655 4.655H18a4.66 4.66 0 0 0 4.655-4.655zM12.431 6.025a6.414 6.414 0 0 1 6.406 6.406 6.413 6.413 0 0 1-6.406 6.406 6.413 6.413 0 0 1-6.406-6.406 6.414 6.414 0 0 1 6.406-6.406zm0 10.606c2.316 0 4.2-1.884 4.2-4.2 0-2.316-1.884-4.2-4.2-4.2a4.205 4.205 0 0 0-4.2 4.2c0 2.316 1.884 4.2 4.2 4.2zm6.675-12.476c.426 0 .844.172 1.144.473.302.3.474.718.474 1.144 0 .425-.172.843-.474 1.144-.301.3-.718.474-1.144.474a1.63 1.63 0 0 1-1.143-.474 1.631 1.631 0 0 1-.475-1.144c0-.426.174-.844.475-1.144.3-.301.718-.473 1.143-.473z"/>
</svg>
