<svg xmlns="http://www.w3.org/2000/svg" width="90" height="90" viewBox="0 0 90 90"><path fill="#FFF" fill-opacity=".746" d="M10.321 79.662c.219.218.515.34.822.338.16-.003.316-.034.464-.093l40.312-17.564h.093a1.16 1.16 0 0 0 .37-.221c1.298-1.318-.937-4.829-3.914-8.42a27.218 27.218 0 0 1 2.56-1.925l-1.263-1.96a30.719 30.719 0 0 0-2.814 2.123 120.34 120.34 0 0 0-4.4-4.665c-1.656-1.667-3.753-3.696-5.86-5.504a29.066 29.066 0 0 0 5.593-10.31l-2.189-.746a27.009 27.009 0 0 1-5.165 9.505c-3.103-2.45-5.952-4.07-7.099-2.916-.083.097-.15.208-.196.327l-.163-.07-17.37 40.818c-.193.433-.106.94.22 1.283zm25.142-29.75v17.05l-3.474 1.516V46.039c1.158 1.306 2.316 2.648 3.474 3.872zM48.4 61.34l-4.83 2.088v-5.715a35.399 35.399 0 0 0 4.83 3.627zm-7.145 3.102l-3.475 1.563V52.29a128.046 128.046 0 0 0 3.475 3.359v8.793zm-11.581 5.062l-3.475 1.516V46.424l2.236-5.271c.347.606.764 1.248 1.239 1.912v26.439zm-5.79 2.519l-3.475 1.516V60.174l3.474-8.315v20.164zM40.917 48.85a64.032 64.032 0 0 1 9.021 10.74 63.81 63.81 0 0 1-10.666-9.084 64.032 64.032 0 0 1-9.021-10.741 63.81 63.81 0 0 1 10.666 9.085zM18.092 65.469v9.061l-4.737 2.065 4.737-11.126zM42.91 28.977l-2.305-.501c.781-3.621.809-7.366.081-10.998l2.316-.455c.792 3.948.76 8.02-.092 11.954zm10.56 21.307l-1.054-2.122a29.06 29.06 0 0 1 18.947-2.624l-.452 2.332a26.792 26.792 0 0 0-17.44 2.414zm-5.269-36.76v-3.498h2.316v3.499h3.474v2.332h-3.474v3.499h-2.316v-3.499h-3.474v-2.332h3.474zm25.478 22.16h2.316v3.498h3.474v2.332h-3.474v3.499H73.68v-3.499h-3.474v-2.332h3.474v-3.499zm4.215-24.294l-.556 3.254 2.316 2.263c.312.31.423.77.289 1.189a1.16 1.16 0 0 1-.926.793l-3.184.467-1.436 2.845a1.157 1.157 0 0 1-1.043.658c-.443 0-.848-.255-1.042-.658L70.9 19.298l-3.184-.467a1.16 1.16 0 0 1-.934-.79 1.172 1.172 0 0 1 .285-1.193l2.316-2.262-.544-3.196a1.17 1.17 0 0 1 1.68-1.259l2.848 1.516 2.849-1.516a1.17 1.17 0 0 1 1.68 1.26zm-3 5.692l1.46-.187-1.054-1.038a1.171 1.171 0 0 1-.336-1.026l.255-1.47-1.309.689a1.15 1.15 0 0 1-1.077 0l-1.308-.689.243 1.47a1.17 1.17 0 0 1-.336 1.026L70.38 16.86l1.46.222c.38.053.71.293.88.641l.648 1.33.66-1.342c.17-.34.494-.575.869-.63zM51.677 34.517c0-2.691 1.827-5.033 4.424-5.668a5.924 5.924 0 0 1 1.367-.163h1.158c1.918 0 3.474-1.567 3.474-3.499h2.316c0 3.22-2.592 5.831-5.79 5.831h-1.158a3.865 3.865 0 0 0-.823.093 3.494 3.494 0 0 0-2.652 3.406 5.826 5.826 0 0 1-4.18 5.598l-.637-2.24a3.495 3.495 0 0 0 2.501-3.358zm-8.106 9.33h-2.316c0-3.22 2.592-5.831 5.79-5.831v2.332c-1.919 0-3.474 1.566-3.474 3.499zm33.584-17.494h2.316v2.333h-2.316v-2.333zM59.783 55.51h2.316v2.333h-2.316V55.51zM28.515 24.021h2.316v2.332h-2.316v-2.332zm28.911-.044l.075-2.315 2.331.076-.075 2.315-2.331-.076zm2.357-10.452h2.316v2.332h-2.316v-2.332zm1.158 24.49h2.316v2.333h-2.316v-2.332zm6.948-10.496h2.317v2.333h-2.317v-2.333zm5.79 25.658h2.317v2.332H73.68v-2.332zM48.203 27.519h2.316v2.333h-2.316v-2.333zM31.989 11.192h2.316v2.333H31.99v-2.333z"/></svg>