<svg xmlns="http://www.w3.org/2000/svg" width="9" height="12" viewBox="0 0 9 12">
    <path fill="#FFF" fill-rule="evenodd" d="M8.025 10.463c.338 0 .637.3.637.675 0 .374-.3.675-.675.675H.976a.672.672 0 0 1-.675-.676c0-.375.3-.675.675-.675H8.025zm-.6-8.925H.975A.672.672 0 0 1 .3.863C.3.487.6.188.975.188h7.05c.375 0 .675.3.675.675 0 .375-.3.675-.675.675h-.6zM7.237 9.9H1.763a3.01 3.01 0 0 1-.225-1.125c0-1.088 1.424-2.063 2.25-2.55.112-.075.15-.15.15-.262a.316.316 0 0 0-.15-.263c-.825-.487-2.25-1.5-2.25-2.55 0-.413.075-.788.224-1.125h5.475c.15.375.226.75.226 1.125 0 1.087-1.426 2.063-2.25 2.55-.113.075-.15.15-.15.263 0 .112.075.224.15.262.824.488 2.25 1.5 2.25 2.55 0 .412-.075.787-.226 1.125z"/>
</svg> 