<svg xmlns="http://www.w3.org/2000/svg" width="90" height="90" viewBox="0 0 90 90"><path fill="#FFF" fill-opacity=".746" d="M16.848 10C13.094 10 10 13.108 10 16.879V47.45c0 3.771 3.094 6.879 6.848 6.879h4.303l-1.26 12.754a2.295 2.295 0 0 0 1.288 2.33c.88.42 1.93.233 2.612-.467L38.342 54.33h3.567v12.205c0 3.115 2.502 5.743 5.611 5.756l13.268.072 7.751 7.046c.68.619 1.75.774 2.568.358.819-.416 1.331-1.376 1.237-2.293l-.5-5.11h2.52c3.122 0 5.636-2.666 5.636-5.781V44.848c0-3.115-2.497-5.772-5.611-5.78h-6.563v-22.19c0-3.77-3.094-6.878-6.848-6.878h-44.13zm0 4.586h44.13c1.304 0 2.283.983 2.283 2.293v22.165l-15.717-.024c-3.127-.008-5.635 2.641-5.635 5.756v4.968h-4.518a2.278 2.278 0 0 0-1.617.669L25.1 61.137l.88-8.885a2.3 2.3 0 0 0-.589-1.762 2.278 2.278 0 0 0-1.694-.746h-6.848c-1.304 0-2.283-.983-2.283-2.293V16.88c0-1.31.979-2.293 2.283-2.293zM38.08 16.09c-4.637 0-8.743 2.796-9.749 6.998a2.3 2.3 0 0 0 .548 2.337 2.276 2.276 0 0 0 2.324.565 2.29 2.29 0 0 0 1.55-1.827c.428-1.788 2.536-3.488 5.327-3.488 3.194 0 5.397 2.102 5.397 4.276 0 4.141-1.18 4.894-3.067 6.64-1.887 1.745-4.541 4.518-4.541 9.72A2.295 2.295 0 0 0 37 43.327c.711.417 1.59.417 2.302 0a2.295 2.295 0 0 0 1.132-2.013c0-3.922 1.15-4.58 3.067-6.354 1.918-1.774 4.541-4.637 4.541-10.007 0-5.085-4.668-8.861-9.962-8.861zm9.463 27.515l26.82.047c.59 0 1.07.455 1.07 1.194v21.735c0 .74-.487 1.195-1.07 1.195H69.3c-1.27.007-2.39 1.262-2.259 2.531l.167 1.696-3.995-3.63a2.301 2.301 0 0 0-1.521-.597l-14.148-.072c-.594 0-1.07-.431-1.07-1.17v-21.76c0-.74.494-1.171 1.07-1.17zm-9.392.764a2.288 2.288 0 0 0-2.282 2.293 2.288 2.288 0 0 0 2.282 2.293 2.288 2.288 0 0 0 2.283-2.293 2.288 2.288 0 0 0-2.283-2.293zm22.065 0a2.288 2.288 0 0 0-2.282 2.293v12.229a2.288 2.288 0 0 0 2.282 2.293 2.288 2.288 0 0 0 2.283-2.293v-12.23a2.288 2.288 0 0 0-2.283-2.292zm0 17.58a2.288 2.288 0 0 0-2.282 2.292 2.288 2.288 0 0 0 2.282 2.293 2.288 2.288 0 0 0 2.283-2.293 2.288 2.288 0 0 0-2.283-2.293z"/></svg>