<svg xmlns="http://www.w3.org/2000/svg" width="16" height="12" viewBox="0 0 16 12">
    <path fill-rule="nonzero" d="M16 6.114a.587.587 0 0 1-.172.417l-2.366 2.287a.585.585 0 0 1-.833 0l-2.325-2.287a.591.591 0 0 1 0-.834h1.832a4.145 4.145 0 0 0-4.131-3.846A4.13 4.13 0 0 0 4.887 3.27L3.39 2.172A5.978 5.978 0 0 1 8.005 0a5.996 5.996 0 0 1 5.985 5.698h1.838c.11.11.172.259.172.416zM.172 6.302H2.01A5.996 5.996 0 0 0 7.996 12a5.978 5.978 0 0 0 4.614-2.172l-1.497-1.097a4.13 4.13 0 0 1-3.117 1.418 4.145 4.145 0 0 1-4.132-3.847h1.832a.59.59 0 0 0 0-.833L3.37 3.182a.585.585 0 0 0-.833 0L.172 5.469a.587.587 0 0 0 0 .834z" />
</svg>
