<svg xmlns="http://www.w3.org/2000/svg" width="90" height="90" viewBox="0 0 90 90"><path fill-rule="nonzero" d="M88.49 82.379L65.317 59.457a36.243 36.243 0 0 0 7.49-22.122C72.809 17.215 56.53.9 36.455.9S0 17.316 0 37.435c0 20.12 16.28 36.436 36.354 36.436 8.19 0 15.78-2.703 21.873-7.307l23.27 22.922c1.998 1.902 5.095 1.902 7.092-.1 1.898-1.902 1.898-5.005-.1-7.007zM36.353 63.861c-14.581 0-26.367-11.811-26.367-26.426 0-14.614 11.886-26.425 26.367-26.425 14.482 0 26.367 11.911 26.367 26.425 0 14.514-11.785 26.426-26.367 26.426z"/></svg>