<svg xmlns="http://www.w3.org/2000/svg" width="90" height="90" viewBox="0 0 90 90"><path fill="#FFF" fill-opacity=".746" d="M78 46.2C78 21.168 67.371 9 45.5 9 23.629 9 13 21.168 13 46.2v7.2h.036c-.012.204-.036.396-.036.6 0 3.372 1.95 6.492 4.815 8.364v3.576c0 6.312 5.152 11.46 11.495 11.46h12.58a2.41 2.41 0 0 1 2.407 2.4c0 .66.542 1.2 1.204 1.2.662 0 1.204-.54 1.204-1.2a2.41 2.41 0 0 1 2.407-2.4H61.69c6.343 0 11.495-5.148 11.495-11.46v-3.576C76.05 60.492 78 57.372 78 54c0-.204-.024-.396-.036-.6H78v-7.2zM15.407 54c0-3.78 3.262-7.14 7.223-7.716v15.42a8.352 8.352 0 0 1-2.408-.732V55.8c0-.66-.541-1.2-1.203-1.2-.663 0-1.204.54-1.204 1.2v3.528c-1.469-1.416-2.408-3.312-2.408-5.328zm9.63 10.2V41.4c0-2.652 2.155-4.8 4.815-4.8a4.806 4.806 0 0 1 4.815 4.8v24c0 2.652-2.155 4.8-4.815 4.8a4.806 4.806 0 0 1-4.815-4.8v-1.2zm45.74 1.74c0 4.992-4.08 9.06-9.087 9.06H49.11a4.781 4.781 0 0 0-3.611 1.656A4.781 4.781 0 0 0 41.889 75H29.31c-5.007 0-9.088-4.068-9.088-9.06v-2.376c.77.276 1.577.468 2.408.564V65.4c0 3.972 3.238 7.2 7.222 7.2 3.984 0 7.222-3.228 7.222-7.2v-24c0-3.972-3.238-7.2-7.222-7.2-3.984 0-7.222 3.228-7.222 7.2v2.472c-.41.048-.807.12-1.204.216V39c0-12.78 10.58-22.8 24.074-22.8 13.494 0 24.074 10.02 24.074 22.8v5.088a10.107 10.107 0 0 0-1.204-.216V41.4c0-3.972-3.238-7.2-7.222-7.2-3.984 0-7.222 3.228-7.222 7.2v24c0 3.972 3.238 7.2 7.222 7.2 3.984 0 7.222-3.228 7.222-7.2v-1.272a10.84 10.84 0 0 0 2.408-.564v2.376zM65.964 43.8v21.6c0 2.652-2.155 4.8-4.815 4.8a4.806 4.806 0 0 1-4.815-4.8v-24c0-2.652 2.155-4.8 4.815-4.8a4.806 4.806 0 0 1 4.815 4.8v2.4zm7.222 15.528V55.8c0-.66-.541-1.2-1.204-1.2-.662 0-1.203.54-1.203 1.2v5.184a8.743 8.743 0 0 1-2.408.732V46.284c3.96.576 7.223 3.936 7.223 7.716 0 2.016-.94 3.912-2.408 5.328zm-1.204-14.376V39c0-14.136-11.627-25.2-26.481-25.2C30.647 13.8 19.02 24.864 19.02 39v5.952a11.354 11.354 0 0 0-3.612 2.808V46.2c0-23.748 9.558-34.8 30.093-34.8s30.093 11.052 30.093 34.8v1.56a11.354 11.354 0 0 0-3.612-2.808z"/></svg>