<svg xmlns="http://www.w3.org/2000/svg" width="120" height="120" viewBox="0 0 120 120">
    <path fill="#82829A" fill-rule="nonzero" d="M110.387 9.417c13.864 13.864 13.622 36.84-9.086 59.552-12.857 12.852-25.684 18.618-36.977 18.618-1.921 0-3.788-.196-5.615-.522a71.841 71.841 0 0 0-3.509-.084c-7.353 0-18.156 1.046-22.805 5.691l-2.452 2.456.16.161a3.823 3.823 0 0 1 0 5.391l-18.579 18.567c-.495.498-1.264.75-2.188.75-1.825 0-4.25-.992-6.296-3.038-3.075-3.074-3.775-7.006-2.292-8.492L19.318 89.9A3.786 3.786 0 0 1 22 88.79c.965 0 1.927.367 2.668 1.086l2.467-2.467c5.729-5.734 5.976-20.833 5.546-27.264-.301-2.113-.186-7.458-.141-7.917.041-.448.024-.877.083-1.33.024 0 .141-.6.165-.6.27-1.995.755-4 1.359-6.022-8.558-2.937-14.818-10.717-15.348-20.161-.023-.431-.128-.834-.128-1.272 0-.367.092-.706.11-1.067A22.728 22.728 0 0 1 40.301.119C40.71.1 41.097 0 41.515 0c.388 0 .745.092 1.128.108 7.514.375 14.012 4.384 17.878 10.287 1.836-1.336 3.666-2.58 5.478-3.647-.004-.01.59-.324.897-.499.865-.494 2.632-1.362 2.632-1.362C75.907 1.707 82.107.019 87.868.019c8.716 0 16.483 3.368 22.519 9.398zm-51.768 2.37C55.177 6.46 49.367 2.824 42.636 2.45a20.396 20.396 0 0 0 8.768 15.673c.672.461 1.404.828 2.132 1.212 1.523.805 3.135 1.46 4.855 1.859.978.228 1.99.369 3.016.453.141-.123.288-.243.429-.361a20.613 20.613 0 0 0-.408-2.738 20.401 20.401 0 0 0-1.639-4.708 20.364 20.364 0 0 0-1.17-2.054zM41.844 52.815c-.077.677-.233 1.985-.235 1.985-.188 6.33 2.074 11.908 6.778 16.61 4.517 4.517 9.88 6.806 15.938 6.806 9.468 0 19.966-5.487 30.352-15.875 9.19-9.197 14.575-18.705 15.568-27.518.82-7.226-1.422-13.719-6.484-18.775-4.357-4.352-9.852-6.657-15.892-6.657-5.71 0-11.914 2.177-18.161 6.03 0 0-.005-.005-.005-.009-1.916 1.199-3.844 2.581-5.775 4.117.11.728.28 1.434.316 2.184.019.38.113.747.113 1.131 0 .416-.1.804-.122 1.212-.604 11.301-9.391 20.297-20.556 21.364-.924 2.508-1.56 4.979-1.835 7.395zM40.292 2.46C29.919 3.09 21.655 11.403 21.119 21.8c7.801.439 14.46 4.815 18.216 11.133.448.759.92 1.506 1.281 2.32.97 2.178 1.556 4.558 1.799 7.042.032.314.122.617.141.942.732-.036 1.423-.196 2.128-.31 9.372-1.478 16.624-9.216 17.205-18.862-.928-.045-1.812-.238-2.704-.389a23.076 23.076 0 0 1-2.741-.632A22.37 22.37 0 0 1 51.8 21.04c-.695-.399-1.396-.777-2.045-1.245-5.45-3.916-9.106-10.167-9.463-17.334zM21.147 24.143c.536 8.373 6.118 15.274 13.713 17.909.732.25 1.46.493 2.228.668 1.021.224 2.05.42 3.121.49-.113-1.798-.534-3.5-1.084-5.14-.329-.978-.704-1.93-1.166-2.837-3.195-6.222-9.436-10.616-16.812-11.09zm78.5 43.166c10.326-10.33 16.409-21.289 17.589-31.701 1.067-9.427-1.876-17.91-8.503-24.536C103.032 5.376 95.82 2.36 87.872 2.36c-5.327 0-11.148 1.556-17.293 4.621-.023.015-1.698.838-2.522 1.306l-.453.25-.348.194c-.024.008-.041.026-.064.036-1.853 1.089-3.684 2.348-5.505 3.678.732 1.428 1.345 2.919 1.77 4.503 1.666-1.281 3.332-2.48 5.007-3.524.068-.04.136-.083.205-.113 6.79-4.155 13.251-6.264 19.2-6.264 6.676 0 12.743 2.544 17.548 7.344 5.582 5.577 8.059 12.733 7.156 20.696-1.052 9.334-6.666 19.333-16.24 28.909-10.836 10.836-21.905 16.56-32.008 16.56-6.705 0-12.625-2.52-17.594-7.49-5.163-5.157-7.67-11.326-7.464-18.331l.248-2.188c.256-2.27.796-4.576 1.582-6.906-.282-.03-.572-.066-.86-.085-1.321-.075-2.608-.293-3.861-.577-.559 1.872-1.012 3.744-1.268 5.628a2.14 2.14 0 0 1-.105.449 2.22 2.22 0 0 1-.068.248c-.015.145-.015.29-.019.43-.01.238-.017.47-.041.713-.051.676-.123 5.601.128 7.366.164 2.367 1.234 21.799-6.21 29.25l-2.466 2.466a2.33 2.33 0 0 1-1.656.688c-.591 0-1.18-.226-1.634-.664a1.457 1.457 0 0 0-1.034-.421c-.39 0-.751.15-1.026.421L2.404 110.121c-.243.41-.073 2.811 2.292 5.18 1.739 1.74 3.588 2.352 4.64 2.352.344 0 .523-.062.564-.09L28.445 99.02a1.47 1.47 0 0 0 0-2.076c-.914-.916-1.074-2.558-.16-3.473l2.454-2.459c5.55-5.544 17.709-6.372 24.462-6.372 1.336 0 2.563.031 3.624.086.1 0 .202.012.298.03 1.82.326 3.522.487 5.202.487 11.371 0 23.583-6.2 35.322-17.935zm-56.23 9.071c.738.732 1.52 1.445 2.33 2.113a2.348 2.348 0 0 1 .773 2.435 2.354 2.354 0 0 1-1.913 1.693c-2.266.339-4.074.703-5.688 1.154a2.435 2.435 0 0 1-.627.081 2.347 2.347 0 0 1-2.261-2.964c.462-1.667.828-3.479 1.153-5.703a2.356 2.356 0 0 1 1.69-1.917 2.35 2.35 0 0 1 2.439.764c.768.935 1.436 1.677 2.104 2.344zm-5.124 5.136c1.963-.544 3.976-.917 5.967-1.213a34.86 34.86 0 0 1-2.499-2.266 34.876 34.876 0 0 1-2.256-2.508c-.292 1.995-.668 4.014-1.212 5.987z"/>
</svg>
