<svg xmlns="http://www.w3.org/2000/svg" width="90" height="90" viewBox="0 0 90 90"><path fill="#FFF" fill-opacity=".746" d="M77.5 30H35c-13.784 0-25 11.215-25 25s11.216 25 25 25c13.196 0 24.036-10.275 24.94-23.245l18.44-6.914A2.5 2.5 0 0 0 80 47.5v-15a2.5 2.5 0 0 0-2.5-2.5zM75 45.767l-18.38 6.891A2.503 2.503 0 0 0 55 55c0 11.028-8.972 20-20 20-11.027 0-20-8.972-20-20s8.973-20 20-20h40v10.767zM32.5 22.5v-10a2.5 2.5 0 1 1 5 0v10a2.5 2.5 0 1 1-5 0zm11.113 2.08a2.498 2.498 0 0 1-.693-3.467l5-7.5a2.496 2.496 0 0 1 3.467-.693 2.498 2.498 0 0 1 .693 3.467l-5 7.5a2.5 2.5 0 0 1-3.467.693zM17.92 16.387a2.498 2.498 0 0 1 .693-3.467 2.497 2.497 0 0 1 3.467.693l5 7.5a2.5 2.5 0 1 1-4.16 2.773l-5-7.5zM22.5 55c0 6.892 5.608 12.5 12.5 12.5S47.5 61.892 47.5 55 41.892 42.5 35 42.5 22.5 48.108 22.5 55zm20 0c0 4.136-3.364 7.5-7.5 7.5s-7.5-3.364-7.5-7.5 3.364-7.5 7.5-7.5 7.5 3.364 7.5 7.5z"/></svg>